<svg width="441" height="419" viewBox="0 0 441 419" fill="none" xmlns="http://www.w3.org/2000/svg">
<path d="M347.71 290.357C370.918 253.643 371.024 214.113 361.067 175.098C357.383 160.644 355.937 144.054 349.156 130.532C338.947 110.171 321.086 94.0563 300.623 81.1008C280.16 68.1454 260.146 56.317 239.175 52.2138C222.557 48.9708 205.113 51.4492 187.891 55.835C169.063 60.6326 151.134 72.6646 133.744 86.0899C117.686 98.4917 101.859 111.79 91.5131 128.156C82.6762 142.135 76.083 157.343 73.045 172.659C69.6881 189.522 70.4075 206.567 71.9542 223.403C74.2353 248.285 84.9502 270.248 98.0156 291.2C108.73 308.402 119.941 325.599 138.6 337.412C159.606 350.711 181.688 362.741 204.026 366.419C220.373 369.106 236.83 366.076 253.188 362.031C271.905 357.392 289.199 345.352 305.827 332.423C321.704 320.09 337.088 307.161 347.71 290.357Z" fill="#F1F1DE"/>
<g opacity="0.4">
<path d="M250.106 190.174C257.792 190.174 264.025 196.349 264.025 203.971C264.025 211.593 257.792 217.768 250.106 217.768C245.915 217.768 231.896 217.768 227.086 217.768C216.74 217.768 208.35 209.45 208.35 199.197C208.35 188.944 216.74 180.626 227.086 180.626C234.664 180.626 241.19 185.083 244.144 191.505C245.954 190.654 247.972 190.174 250.106 190.174Z" fill="#BCBC9E"/>
</g>
<g opacity="0.4">
<path d="M209.516 124.138C205.356 124.138 201.984 120.771 201.984 116.624C201.984 112.468 205.356 109.102 209.516 109.102C210.336 109.102 211.124 109.234 211.867 109.474C212.617 102.92 218.192 97.828 224.966 97.828C232.25 97.828 238.15 103.717 238.15 110.983C238.15 111.029 238.15 111.068 238.15 111.114C238.575 111.029 239.016 110.983 239.465 110.983C243.107 110.983 246.061 113.931 246.061 117.56C246.061 121.189 243.107 124.138 239.465 124.138C237.013 124.138 212.23 124.138 209.516 124.138Z" fill="#BCBC9E"/>
</g>
<g opacity="0.4">
<path d="M127.332 280.447C123.907 280.447 121.131 277.615 121.131 274.125C121.131 270.635 123.907 267.803 127.332 267.803C128.577 267.803 129.745 268.174 130.712 268.824C130.781 262.533 135.807 257.457 141.986 257.457C144.058 257.457 145.999 258.022 147.669 259.013C148.327 248.52 156.894 240.209 167.357 240.209C174.772 240.209 181.229 244.38 184.601 250.547C186.974 249.092 189.758 248.257 192.728 248.257C201.442 248.257 208.51 255.461 208.51 264.352C208.51 273.243 201.442 280.447 192.728 280.447C188.003 280.447 130.062 280.447 127.332 280.447Z" fill="#BCBC9E"/>
</g>
<path d="M74.2335 221.049V168.059L33.9 221.049H74.2335ZM0 253.735V214.116L66.8102 126.459H113.33V221.049H139.064V253.735H113.33V287.164H74.2335V253.735H0Z" fill="#27686A"/>
<path d="M375.915 221.049V168.059L335.582 221.049H375.915ZM301.682 253.735V214.116L368.492 126.459H415.011V221.049H440.746V253.735H415.011V287.164H375.915V253.735H301.682Z" fill="#27686A"/>
<path d="M198.017 301.971C197.667 301.955 197.341 301.738 197.2 301.395L161.243 211.288C161.051 210.814 161.284 210.274 161.751 210.089C162.225 209.896 162.765 210.13 162.95 210.604L198.915 300.711C199.1 301.178 198.874 301.719 198.399 301.911C198.276 301.955 198.138 301.977 198.017 301.971Z" fill="#6B6C86"/>
<path d="M214.45 247.074C207.632 246.747 200.971 245.246 194.787 242.587C185.476 238.582 177.36 232.344 171.322 224.545C170.217 223.111 169.158 221.607 168.173 220.078C167.9 219.649 168.02 219.082 168.448 218.802C168.876 218.529 169.45 218.65 169.723 219.078C170.675 220.563 171.707 222.022 172.779 223.413C178.628 230.966 186.489 237.006 195.519 240.89C207.613 246.095 221.608 246.709 234.925 242.631C247.778 238.696 259.185 230.739 267.042 220.243C267.348 219.836 267.924 219.749 268.332 220.055C268.739 220.36 268.826 220.937 268.521 221.345C260.426 232.159 248.694 240.343 235.464 244.397C228.529 246.519 221.41 247.408 214.45 247.074Z" fill="#6B6C86"/>
<path d="M218.436 325.425L203.83 324.723C200.774 324.577 198.321 322.161 198.13 319.102L197.076 302.254C197.042 301.751 197.428 301.312 197.938 301.279C198.44 301.246 198.88 301.632 198.913 302.142L199.968 318.982C200.103 321.108 201.797 322.779 203.918 322.88L218.525 323.582C220.474 323.675 222.15 322.295 222.435 320.368L225.09 302.253C225.102 302.153 225.135 302.062 225.182 301.971L266.959 220.372C267.188 219.917 267.748 219.736 268.202 219.973C268.649 220.202 268.83 220.755 268.601 221.209L226.887 302.676L224.261 320.635C223.838 323.507 221.335 325.564 218.436 325.425Z" fill="#6B6C86"/>
<path d="M211.633 310.016C203.28 309.616 196.884 306.166 197.076 302.159C197.268 298.151 203.964 295.329 212.316 295.73C212.823 295.754 213.218 296.188 213.193 296.696C213.169 297.203 212.735 297.597 212.228 297.573C206.053 297.277 199.067 299.126 198.918 302.247C198.768 305.369 205.546 307.877 211.721 308.173C217.896 308.469 224.875 306.62 225.024 303.499C225.097 301.97 223.239 300.292 220.168 299.12C219.69 298.94 219.451 298.406 219.631 297.928C219.811 297.45 220.345 297.217 220.823 297.398C224.779 298.905 226.982 301.165 226.866 303.587C226.674 307.594 219.985 310.417 211.633 310.016Z" fill="#6B6C86"/>
<path d="M208.335 297.384C207.9 297.363 207.529 297.03 207.465 296.583L201.282 247.785C201.22 247.281 201.579 246.818 202.083 246.757C202.58 246.695 203.049 247.047 203.111 247.558L209.294 296.349C209.363 296.853 209.004 297.316 208.5 297.378C208.442 297.389 208.392 297.387 208.335 297.384Z" fill="#6B6C86"/>
<path d="M214.064 310.038C214.028 310.036 213.993 310.027 213.957 310.026C213.453 309.944 213.117 309.47 213.199 308.966L223.073 248.565C223.155 248.061 223.629 247.726 224.133 247.807C224.637 247.889 224.972 248.363 224.891 248.867L215.017 309.26C214.937 309.729 214.528 310.06 214.064 310.038Z" fill="#6B6C86"/>
<path d="M277.125 193.314C276.135 233.761 230.182 261.762 193.345 245.91C184.308 242.026 176.27 235.934 170.239 228.141C157.455 211.612 153.306 188.838 161.29 169.275C176.616 131.735 229.064 116.203 258.946 146.248C271.311 158.669 277.551 176.173 277.125 193.314Z" fill="#27686A"/>
<g opacity="0.3">
<path d="M211.071 240.281C204.717 239.976 199.809 234.571 200.113 228.213C200.418 221.849 205.819 216.939 212.172 217.244C227.821 217.995 241.167 205.855 241.916 190.19C242.037 187.669 241.828 185.153 241.293 182.721C239.938 176.499 243.874 170.352 250.086 168.989C256.304 167.626 262.442 171.565 263.804 177.788C264.767 182.201 265.15 186.745 264.933 191.295C263.576 219.668 239.413 241.641 211.071 240.281Z" fill="#8DB7A8"/>
</g>
<path d="M200.234 145.847C199.499 145.811 198.828 145.342 198.577 144.6C198.251 143.639 198.759 142.59 199.727 142.257C202.542 141.289 205.475 140.563 208.438 140.097C209.447 139.945 210.387 140.627 210.546 141.637C210.705 142.647 210.016 143.588 209.007 143.747C206.253 144.18 203.531 144.852 200.919 145.75C200.693 145.826 200.463 145.857 200.234 145.847Z" fill="#8DB7A8"/>
<path d="M171.299 212.505C170.628 212.473 169.996 212.07 169.698 211.412C167.883 207.315 166.602 202.979 165.907 198.514C162.804 178.69 171.635 158.787 188.412 147.8C189.262 147.239 190.402 147.48 190.962 148.337C191.516 149.187 191.282 150.329 190.425 150.889C174.86 161.082 166.671 179.548 169.548 197.937C170.194 202.085 171.383 206.116 173.069 209.912C173.482 210.842 173.065 211.931 172.137 212.345C171.859 212.468 171.577 212.519 171.299 212.505Z" fill="#8DB7A8"/>
</svg>
