<svg width="18" height="18" viewBox="0 0 18 18" fill="none" xmlns="http://www.w3.org/2000/svg">
<path opacity="0.4" d="M14.25 15V13.875M3.75 15V13.875" stroke="#1C211C" stroke-width="1.5" stroke-linecap="round"/>
<path d="M1.5 11.25C1.5 10.5511 1.5 10.2016 1.61418 9.92597C1.76642 9.55843 2.05843 9.26642 2.42597 9.11418C2.70163 9 3.05109 9 3.75 9H14.25C14.9489 9 15.2984 9 15.574 9.11418C15.9416 9.26642 16.2336 9.55843 16.3858 9.92597C16.5 10.2016 16.5 10.5511 16.5 11.25C16.5 11.9489 16.5 12.2984 16.3858 12.574C16.2336 12.9416 15.9416 13.2336 15.574 13.3858C15.2984 13.5 14.9489 13.5 14.25 13.5H3.75C3.05109 13.5 2.70163 13.5 2.42597 13.3858C2.05843 13.2336 1.76642 12.9416 1.61418 12.574C1.5 12.2984 1.5 11.9489 1.5 11.25Z" stroke="#1C211C" stroke-width="1.5"/>
<path d="M15.75 9C15.75 6.17157 15.75 4.75736 14.8713 3.87868C13.9926 3 12.5784 3 9.75 3H8.25C5.42157 3 4.00736 3 3.12868 3.87868C2.25 4.75736 2.25 6.17157 2.25 9" stroke="#1C211C" stroke-width="1.5"/>
<path opacity="0.4" d="M13.875 9V7.875C13.875 6.46079 13.875 5.75368 13.4357 5.31434C12.9963 4.875 12.2892 4.875 10.875 4.875H7.125C5.71079 4.875 5.00368 4.875 4.56434 5.31434C4.125 5.75368 4.125 6.46079 4.125 7.875V9M9 5.25V9" stroke="#1C211C" stroke-width="1.5"/>
</svg>
