<svg width="25" height="24" viewBox="0 0 25 24" fill="none" xmlns="http://www.w3.org/2000/svg">
<path d="M19.3493 10.6602C20.4613 11.9744 20.23 13.5815 20.2301 15C20.2301 18.9062 14.9632 20 12.25 20C9.53677 20 4.26994 18.9062 4.26994 15C4.26995 13.5815 4.03875 11.9744 5.15066 10.6602M19.3493 10.6602C19.1548 10.4303 18.9192 10.2094 18.634 10M19.3493 10.6602C20.0493 11.0634 20.2281 9.55469 20.2301 9.0625V7.18761C20.2301 5.56261 19.1129 5.00011 18.1553 5.00011C17.1977 5.00011 15.2824 6.5625 14.644 6.5625C13.8779 6.5625 13.7304 6.40636 12.25 6.40636C10.7697 6.40636 10.6221 6.5625 9.85601 6.5625C9.2176 6.5625 7.30236 5 6.34476 5C5.38715 5 4.26995 5.5625 4.26995 7.1875V9.0625C4.27188 9.55469 4.45072 11.0634 5.15066 10.6602M5.15066 10.6602C5.34519 10.4303 5.58082 10.2094 5.86599 10" stroke="#27686A" stroke-width="1.5" stroke-linecap="round"/>
<path opacity="0.5" d="M13.0758 16C13.0758 16.1726 12.7147 16.3125 12.2693 16.3125C11.824 16.3125 11.4629 16.1726 11.4629 16C11.4629 15.8274 11.824 15.6875 12.2693 15.6875C12.7147 15.6875 13.0758 15.8274 13.0758 16Z" stroke="#27686A" stroke-width="1.5"/>
<path opacity="0.5" d="M15.75 13.5938C15.75 14.0252 15.5334 14.375 15.2661 14.375C14.9989 14.375 14.7823 14.0252 14.7823 13.5938C14.7823 13.1623 14.9989 12.8125 15.2661 12.8125C15.5334 12.8125 15.75 13.1623 15.75 13.5938Z" stroke="#27686A" stroke-width="1.5"/>
<path opacity="0.5" d="M9.75 13.5938C9.75 14.0252 9.53336 14.375 9.26613 14.375C8.99889 14.375 8.78226 14.0252 8.78226 13.5938C8.78226 13.1623 8.99889 12.8125 9.26613 12.8125C9.53336 12.8125 9.75 13.1623 9.75 13.5938Z" stroke="#27686A" stroke-width="1.5"/>
<path opacity="0.5" d="M22.2504 15.4688C21.7665 15.1562 19.6697 14.375 18.8633 14.375" stroke="#27686A" stroke-width="1.5" stroke-linecap="round"/>
<path opacity="0.5" d="M20.6371 17.9688C20.1533 17.6562 19.0242 16.875 18.2178 16.875" stroke="#27686A" stroke-width="1.5" stroke-linecap="round"/>
<path opacity="0.5" d="M2.25 15.4688C2.73387 15.1562 4.83065 14.375 5.6371 14.375" stroke="#27686A" stroke-width="1.5" stroke-linecap="round"/>
<path opacity="0.5" d="M3.86279 17.9688C4.34667 17.6562 5.4757 16.875 6.28215 16.875" stroke="#27686A" stroke-width="1.5" stroke-linecap="round"/>
</svg>
