<svg width="24" height="24" viewBox="0 0 24 24" fill="none" xmlns="http://www.w3.org/2000/svg">
<path d="M4.01207 15.7618L5.70156 10.6933C6.46758 8.39525 6.85059 7.24623 7.75684 7.03229C8.6631 6.81835 9.51953 7.67478 11.2324 9.38764L14.6114 12.7666C16.3242 14.4795 17.1807 15.3359 16.9667 16.2422C16.7528 17.1484 15.6038 17.5314 13.3057 18.2975L8.23724 19.987C5.47183 20.9088 4.08912 21.3697 3.35924 20.6398C2.62936 19.9099 3.09026 18.5272 4.01207 15.7618Z" stroke="#27686A" stroke-width="1.5" stroke-linecap="round"/>
<path opacity="0.5" d="M12.2351 18.3463C12.2351 18.3463 11.477 16.0652 11.477 14.5554C11.477 13.0457 12.2351 10.7646 12.2351 10.7646M8.06517 19.4836C8.06517 19.4836 7.42484 16.7317 7.307 14.9345C7.11229 11.9653 8.06517 7.35278 8.06517 7.35278" stroke="#27686A" stroke-width="1.5" stroke-linecap="round"/>
<path d="M14.5093 10.0061L14.6533 9.28614C14.7986 8.55924 15.3224 7.96597 16.0256 7.73155C16.7289 7.49714 17.2526 6.90387 17.398 6.17697L17.542 5.45703" stroke="#27686A" stroke-width="1.5" stroke-linecap="round"/>
<path d="M17.5693 13.2533L17.7822 13.3762C18.4393 13.7556 19.2655 13.6719 19.8332 13.1685C20.3473 12.7126 21.0794 12.597 21.709 12.8723L22.0005 12.9997" stroke="#27686A" stroke-width="1.5" stroke-linecap="round"/>
<path d="M9.79489 2.77927C9.4574 3.33133 9.54198 4.04271 9.99951 4.50024L10.0974 4.59812C10.4906 4.99128 10.6355 5.56886 10.4746 6.10109" stroke="#27686A" stroke-width="1.5" stroke-linecap="round"/>
<g opacity="0.5">
<path d="M6.92761 3.94079C7.13708 3.73132 7.47669 3.73132 7.68616 3.94079C7.89563 4.15026 7.89563 4.48988 7.68616 4.69935C7.47669 4.90882 7.13708 4.90882 6.92761 4.69935C6.71814 4.48988 6.71814 4.15026 6.92761 3.94079Z" fill="#27686A"/>
</g>
<g opacity="0.5">
<path d="M12.1571 7.1571C12.3666 6.94763 12.7062 6.94763 12.9157 7.1571C13.1251 7.36657 13.1251 7.70619 12.9157 7.91566C12.7062 8.12512 12.3666 8.12512 12.1571 7.91566C11.9476 7.70619 11.9476 7.36657 12.1571 7.1571Z" fill="#27686A"/>
</g>
<g opacity="0.5">
<path d="M17.1571 10.1571C17.3666 9.94763 17.7062 9.94763 17.9157 10.1571C18.1251 10.3666 18.1251 10.7062 17.9157 10.9157C17.7062 11.1251 17.3666 11.1251 17.1571 10.9157C16.9476 10.7062 16.9476 10.3666 17.1571 10.1571Z" fill="#27686A"/>
</g>
<path opacity="0.5" d="M19.058 15.3134C19.2674 15.1039 19.6071 15.1039 19.8165 15.3134C20.026 15.5228 20.026 15.8624 19.8165 16.0719C19.6071 16.2814 19.2674 16.2814 19.058 16.0719C18.8485 15.8624 18.8485 15.5228 19.058 15.3134Z" fill="#27686A"/>
<path d="M19.1725 10.3278L18.6871 10.4479L18.7596 10.7407L19.0523 10.8131L19.1725 10.3278ZM21.0005 8.49976L20.5005 8.49842C20.5001 8.63149 20.5528 8.75921 20.6469 8.85331C20.741 8.9474 20.8688 9.00011 21.0018 8.99975L21.0005 8.49976ZM19.1725 10.3278C19.6578 10.2076 19.6579 10.2077 19.6579 10.2078C19.6579 10.2078 19.6579 10.2079 19.6579 10.2079C19.6579 10.208 19.6579 10.2081 19.6579 10.2081C19.6579 10.2081 19.6579 10.208 19.6579 10.2078C19.6578 10.2074 19.6576 10.2065 19.6572 10.2052C19.6566 10.2026 19.6556 10.1982 19.6542 10.1922C19.6513 10.1801 19.6471 10.1613 19.6417 10.1367C19.631 10.0874 19.616 10.0148 19.5999 9.92521C19.5675 9.7449 19.5314 9.50074 19.5147 9.24035C19.4979 8.97697 19.5022 8.71501 19.5417 8.49281C19.5825 8.26319 19.6511 8.13193 19.7153 8.06767L19.0082 7.36057C18.7373 7.63144 18.6146 7.99446 18.5571 8.31772C18.4983 8.64842 18.4972 8.99799 18.5168 9.30423C18.5366 9.61348 18.5788 9.89705 18.6157 10.1021C18.6342 10.2051 18.6516 10.2896 18.6645 10.3492C18.671 10.379 18.6764 10.4027 18.6803 10.4194C18.6823 10.4277 18.6838 10.4344 18.685 10.4391C18.6856 10.4415 18.686 10.4435 18.6864 10.4449C18.6866 10.4457 18.6867 10.4463 18.6868 10.4468C18.6869 10.447 18.687 10.4472 18.687 10.4474C18.687 10.4475 18.6871 10.4476 18.6871 10.4477C18.6871 10.4478 18.6871 10.4479 19.1725 10.3278ZM19.7153 8.06767C19.9581 7.82491 20.15 7.84347 20.2388 7.88445C20.3352 7.92897 20.5016 8.08862 20.5005 8.49842L21.5005 8.50109C21.5023 7.81705 21.2043 7.22892 20.6581 6.97662C20.1042 6.72076 19.4753 6.89343 19.0082 7.36057L19.7153 8.06767ZM19.1725 10.3278C19.0523 10.8131 19.0525 10.8131 19.0526 10.8132C19.0526 10.8132 19.0527 10.8132 19.0528 10.8132C19.053 10.8133 19.0532 10.8133 19.0535 10.8134C19.054 10.8135 19.0546 10.8137 19.0553 10.8139C19.0568 10.8142 19.0587 10.8147 19.0611 10.8153C19.0659 10.8164 19.0725 10.818 19.0809 10.8199C19.0975 10.8238 19.1212 10.8292 19.151 10.8357C19.2106 10.8487 19.2951 10.8661 19.3982 10.8846C19.6032 10.9214 19.8868 10.9637 20.196 10.9835C20.5023 11.0031 20.8518 11.0019 21.1825 10.9431C21.5058 10.8856 21.8688 10.7629 22.1397 10.492L21.4326 9.78493C21.3683 9.84919 21.2371 9.91772 21.0074 9.95856C20.7852 9.99808 20.5233 10.0024 20.2599 9.9855C19.9995 9.96883 19.7553 9.93273 19.575 9.90033C19.4854 9.88423 19.4129 9.86928 19.3636 9.85855C19.3389 9.85319 19.3202 9.84891 19.3081 9.84608C19.302 9.84467 19.2976 9.84363 19.295 9.843C19.2937 9.84269 19.2929 9.84248 19.2925 9.84238C19.2923 9.84233 19.2922 9.8423 19.2922 9.84231C19.2922 9.84231 19.2922 9.84232 19.2923 9.84234C19.2923 9.84235 19.2924 9.84237 19.2924 9.84237C19.2925 9.84239 19.2926 9.84241 19.1725 10.3278ZM22.1397 10.492C22.6068 10.0249 22.7795 9.39606 22.5236 8.84215C22.2713 8.29592 21.6832 7.99793 20.9992 7.99976L21.0018 8.99975C21.4116 8.99866 21.5713 9.16509 21.6158 9.26148C21.6568 9.3502 21.6753 9.54218 21.4326 9.78493L22.1397 10.492Z" fill="#27686A"/>
<path opacity="0.5" d="M15.1881 3.41748L15.1605 3.51459C15.1302 3.62126 15.1151 3.67459 15.1222 3.72695C15.1294 3.77931 15.1581 3.82476 15.2154 3.91567L15.2677 3.99844C15.4695 4.31836 15.5704 4.47831 15.5017 4.60915C15.4329 4.73998 15.24 4.75504 14.8542 4.78517L14.7543 4.79296C14.6447 4.80152 14.5899 4.8058 14.542 4.83099C14.494 4.85618 14.4584 4.89943 14.3872 4.98592L14.3224 5.06467C14.0718 5.36905 13.9465 5.52124 13.8035 5.50167C13.6606 5.4821 13.5947 5.30373 13.4629 4.94699L13.4288 4.85469C13.3914 4.75332 13.3726 4.70263 13.3358 4.66584C13.2991 4.62905 13.2484 4.61033 13.147 4.57287L13.0547 4.53878C12.698 4.40698 12.5196 4.34108 12.5 4.19815C12.4805 4.05522 12.6326 3.92992 12.937 3.67932L13.0158 3.61448C13.1023 3.54327 13.1455 3.50767 13.1707 3.45974C13.1959 3.41181 13.2002 3.35699 13.2087 3.24735L13.2165 3.14753C13.2466 2.76169 13.2617 2.56877 13.3925 2.50001C13.5234 2.43124 13.6833 2.53217 14.0033 2.73403L14.086 2.78626C14.1769 2.84362 14.2224 2.8723 14.2747 2.87947C14.3271 2.88664 14.3804 2.87148 14.4871 2.84117L14.5842 2.81358C14.9596 2.70692 15.1472 2.65359 15.2477 2.75402C15.3481 2.85445 15.2948 3.04213 15.1881 3.41748Z" stroke="#27686A"/>
</svg>
