<svg width="45" height="45" viewBox="0 0 45 45" fill="none" xmlns="http://www.w3.org/2000/svg">
<path d="M16.7214 13.6003C15.0242 13.6003 13.6387 12.2148 13.6387 10.5175C13.6387 8.82027 15.0242 7.43475 16.7214 7.43475C18.4187 7.43475 19.8042 8.82027 19.8042 10.5175C19.8042 12.2148 18.4187 13.6003 16.7214 13.6003ZM16.7214 9.47839C16.1326 9.47839 15.6823 9.96332 15.6823 10.5175C15.6823 11.0717 16.1672 11.5567 16.7214 11.5567C17.2756 11.5567 17.7606 11.0717 17.7606 10.5175C17.7606 9.96332 17.2756 9.47839 16.7214 9.47839Z" fill="#1C211C"/>
<path d="M28.3944 13.6003C26.6972 13.6003 25.3116 12.2148 25.3116 10.5175C25.3116 8.82027 26.6972 7.43475 28.3944 7.43475C30.0917 7.43475 31.4772 8.82027 31.4772 10.5175C31.4772 12.2148 30.0917 13.6003 28.3944 13.6003ZM28.3944 9.47839C27.8056 9.47839 27.3553 9.96332 27.3553 10.5175C27.3553 11.0717 27.8402 11.5567 28.3944 11.5567C28.9833 11.5567 29.4335 11.0717 29.4335 10.5175C29.4335 9.96332 28.9833 9.47839 28.3944 9.47839Z" fill="#1C211C"/>
<path d="M15.9595 33.4824H6.26086V27.1437C6.26086 24.4766 8.44305 22.2944 11.1102 22.2944C13.7773 22.2944 15.9595 24.4766 15.9595 27.1437V33.4824ZM8.3045 31.4734H13.9505V27.1437C13.9505 25.585 12.7035 24.338 11.1448 24.338C9.5861 24.338 8.33914 25.585 8.33914 27.1437V31.4734H8.3045Z" fill="#1C211C"/>
<path d="M11.1102 20.2507C9.30904 20.2507 7.85425 18.796 7.85425 16.9948C7.85425 15.1936 9.30904 13.7388 11.1102 13.7388C12.9114 13.7388 14.3662 15.1936 14.3662 16.9948C14.3662 18.796 12.9114 20.2507 11.1102 20.2507ZM11.1102 15.7825C10.4174 15.7825 9.89788 16.3367 9.89788 16.9948C9.89788 17.6875 10.4521 18.2071 11.1102 18.2071C11.7683 18.2071 12.3225 17.6529 12.3225 16.9948C12.3225 16.3367 11.803 15.7825 11.1102 15.7825Z" fill="#1C211C"/>
<path d="M27.39 33.4824H17.6914V27.1437C17.6914 24.4766 19.8736 22.2944 22.5407 22.2944C25.2078 22.2944 27.39 24.4766 27.39 27.1437V33.4824ZM19.735 31.4734H25.381V27.1437C25.381 25.585 24.134 24.338 22.5753 24.338C21.0166 24.338 19.7697 25.585 19.7697 27.1437C19.735 27.1437 19.735 31.4734 19.735 31.4734Z" fill="#1C211C"/>
<path d="M22.5406 20.2507C20.7395 20.2507 19.2847 18.796 19.2847 16.9948C19.2847 15.1936 20.7395 13.7388 22.5406 13.7388C24.3418 13.7388 25.7966 15.1936 25.7966 16.9948C25.7966 18.796 24.3418 20.2507 22.5406 20.2507ZM22.5406 15.7825C21.8479 15.7825 21.3283 16.3367 21.3283 16.9948C21.3283 17.6875 21.8825 18.2071 22.5406 18.2071C23.1987 18.2071 23.753 17.6529 23.753 16.9948C23.753 16.3367 23.2334 15.7825 22.5406 15.7825Z" fill="#1C211C"/>
<path d="M38.8204 33.4824H29.1218V27.1437C29.1218 24.4766 31.304 22.2944 33.9711 22.2944C36.6382 22.2944 38.8204 24.4766 38.8204 27.1437V33.4824ZM31.1655 31.4734H36.8114V27.1437C36.8114 25.585 35.5645 24.338 34.0058 24.338C32.4471 24.338 31.2001 25.585 31.2001 27.1437C31.1655 27.1437 31.1655 31.4734 31.1655 31.4734Z" fill="#1C211C"/>
<path d="M31.1655 35.6299H29.1912V37.6043H31.1655V35.6299Z" fill="#1C211C"/>
<path d="M34.9757 35.5953H33.0013V37.5697H34.9757V35.5953Z" fill="#1C211C"/>
<path d="M38.8204 35.5953H36.8461V37.5697H38.8204V35.5953Z" fill="#1C211C"/>
<path d="M33.8326 20.701L31.4426 18.1032L32.9667 16.7177L34.1444 18.0339L36.6383 16.3367L37.816 17.9993L33.8326 20.701Z" fill="#1C211C"/>
</svg>
