<svg width="45" height="45" viewBox="0 0 45 45" fill="none" xmlns="http://www.w3.org/2000/svg">
<path d="M27.0782 30.2478C27.7435 29.5826 28.1348 28.6826 28.1348 27.7043C28.1348 26.7261 27.7435 25.8652 27.0782 25.1608L24.3782 22.5L41.0869 5.90867L39.4826 4.30432L22.813 20.9348L20.113 18.2348C18.7043 16.8261 16.4348 16.8261 15.0261 18.2348L13.6956 19.5652L4.30432 27L8.49128 31.1869L10.0956 32.7913L10.1348 32.7522L13.9304 36.5087L14.8304 35.6087C15.3782 38.6217 17.6478 40.2261 17.7652 40.3043L18.6652 40.9304L25.7869 31.5782L27.0782 30.2478ZM18.5087 19.8391L25.513 26.8043C25.7478 27.0391 25.9043 27.3913 25.9043 27.7435C25.9043 28.0956 25.7869 28.4478 25.513 28.6826L24.9261 29.2695L20.2304 24.5739L16.0435 20.3869L16.6304 19.8C17.1391 19.2913 18 19.2913 18.5087 19.8391ZM18.2348 37.7217C17.4913 36.8608 16.5913 35.2956 17.0608 33.1043L17.8826 29.3869L13.8913 33.3391L11.7 31.1478L15.7695 27.0782L14.1652 25.4739L10.0956 29.5826L7.66954 27.1956L14.3217 21.913L23.4 30.9522L18.2348 37.7217Z" fill="#1C211C"/>
<path d="M39.1695 38.2695H25.3564V40.5H39.1695V38.2695Z" fill="#1C211C"/>
<path d="M32.8696 34.5912H25.787V36.8217H32.8696V34.5912Z" fill="#1C211C"/>
<path d="M24.1825 38.2304H21.913V40.5H24.1825V38.2304Z" fill="#1C211C"/>
</svg>
