<svg width="45" height="45" viewBox="0 0 45 45" fill="none" xmlns="http://www.w3.org/2000/svg">
<path d="M25.4355 7.90403C25.9445 7.90403 26.4535 8.09968 26.8448 8.49099C27.6274 9.27359 27.6274 10.5255 26.8448 11.2699L22.5005 15.6141L18.1563 11.2699C17.3737 10.4873 17.3737 9.2354 18.1563 8.49099C18.5476 8.09968 19.0168 7.90403 19.5656 7.90403C20.1128 7.90403 20.5836 8.09968 20.9749 8.49099L22.5004 10.0164L24.0258 8.49099C24.4171 8.09968 24.8867 7.90403 25.4355 7.90403ZM25.4352 6.26086C24.4966 6.26086 23.5963 6.61243 22.8917 7.31707L22.5004 7.70838L22.1091 7.31707C21.4044 6.61241 20.4659 6.26086 19.5656 6.26086C18.6653 6.26086 17.7268 6.61243 17.0221 7.31707C15.6128 8.72639 15.6128 10.9947 17.0221 12.404L22.5004 17.8823L27.9786 12.404C29.3879 10.9947 29.3879 8.72639 27.9786 7.31707C27.274 6.61241 26.3355 6.26086 25.4352 6.26086ZM37.8011 24.77C38.4661 24.105 38.8574 23.2047 38.8192 22.2265C38.8192 21.288 38.4279 20.3877 37.7232 19.7228C36.3536 18.3929 34.0838 18.4311 32.7141 19.8404L29.1144 23.4401C29.5837 24.0271 29.897 24.6538 30.1324 25.3569L34.2012 21.2881C34.7882 20.7012 35.7267 20.6614 36.3136 21.2102C36.5873 21.4838 36.7447 21.8369 36.7447 22.2664C36.7447 22.6577 36.5888 23.049 36.3136 23.3226L26.8445 32.7917C26.7268 32.9094 26.6091 32.9477 26.4532 32.9477H18.3915C17.6869 32.9477 17.0617 33.2213 16.5527 33.6905L13.5002 36.6253C13.2648 36.8607 12.9133 36.821 12.6778 36.6253L8.45137 32.3988C8.33367 32.2811 8.29546 32.1252 8.29546 32.0075C8.29546 31.8898 8.37341 31.6942 8.49111 31.5765L14.8298 25.1978C14.9475 25.0801 15.0652 25.0419 15.2212 25.0419H25.0437C25.435 25.0419 25.8263 25.1978 26.0999 25.473C26.3735 25.7466 26.5309 26.1379 26.5309 26.5292C26.5309 27.3118 25.8263 27.9767 24.9657 27.9767H18.7448V30.0509H24.9657C26.9222 30.0509 28.5272 28.4857 28.5654 26.5689C28.5654 25.6304 28.2138 24.7301 27.5474 24.0254C26.8825 23.3605 25.9822 22.9692 25.0437 22.9692H15.2212C14.5165 22.9692 13.8913 23.2428 13.3823 23.7121L7.0436 30.0907C6.53459 30.5997 6.26099 31.2646 6.26099 31.9693C6.26099 32.674 6.53459 33.3389 7.0436 33.8479L11.2701 38.0744C11.7791 38.5834 12.444 38.857 13.1486 38.857C13.8533 38.857 14.4785 38.6216 14.9875 38.1141L18.04 35.1793C18.1576 35.0616 18.2753 35.0234 18.4313 35.0234H26.4929C27.1976 35.0234 27.8625 34.7498 28.3715 34.2408L37.8407 24.7716L37.8011 24.77Z" fill="#1C211C"/>
</svg>
