<svg width="45" height="45" viewBox="0 0 45 45" fill="none" xmlns="http://www.w3.org/2000/svg">
<path d="M40.6957 28.1739C40.6957 26.6478 39.6001 25.2783 38.1131 24.9261L34.0436 23.8304H33.9653C33.1436 23.6739 32.4392 23.1652 32.0088 22.4609L29.8175 18.9783C29.1523 17.8826 27.9784 17.2565 26.687 17.2565H23.4784H21.1697H6.41748L6.06531 17.6478C3.874 20.3478 3.91313 25.8261 3.91313 26.4913V35.4913H8.96096C9.46965 37.1739 11.0349 38.4261 12.874 38.4261C14.7131 38.4261 16.3175 37.1739 16.787 35.4913H27.7044C28.2131 37.1739 29.7784 38.4261 31.6175 38.4261C33.4566 38.4261 35.061 37.1739 35.5305 35.4913H40.6175L40.6957 28.1739ZM26.7262 19.5652C27.1957 19.5652 27.6262 19.8 27.9001 20.1913L30.0914 23.6739C30.287 23.987 30.5218 24.3 30.7957 24.5739H23.4784V19.5652H26.7262ZM7.55226 19.5652H21.1305V24.5739H6.30009C6.45661 22.9304 6.76965 20.8174 7.55226 19.5652ZM12.874 36.1174C11.8957 36.1174 11.074 35.3348 11.074 34.3174C11.074 33.3 11.8566 32.5174 12.874 32.5174C13.8914 32.5174 14.674 33.3 14.674 34.3174C14.674 35.3348 13.8523 36.1174 12.874 36.1174ZM31.6566 36.1174C30.6784 36.1174 29.8566 35.3348 29.8566 34.3174C29.8566 33.3 30.6392 32.5174 31.6566 32.5174C32.674 32.5174 33.4566 33.3 33.4566 34.3174C33.4566 35.3348 32.6349 36.1174 31.6566 36.1174ZM38.387 33.1826H35.6088C35.1001 31.5 33.5349 30.2478 31.6957 30.2478C29.8566 30.2478 28.2523 31.5 27.7827 33.1826H16.8262C16.3175 31.5 14.7523 30.2478 12.9131 30.2478C11.074 30.2478 9.46965 31.5 9.00009 33.1826H6.26096V26.8435H21.1697H23.4784H36.3523L37.5262 27.1565H37.6044C38.074 27.2739 38.387 27.6652 38.387 28.1348V33.1826Z" fill="#27686A"/>
<path d="M19.8783 10.0565H7.63049V12.3652H19.8783V10.0565Z" fill="#27686A"/>
<path d="M13.3827 6.26086H4.10876V8.56956H13.3827V6.26086Z" fill="#27686A"/>
<path d="M25.6305 13.6174H4.10876V15.9261H25.6305V13.6174Z" fill="#27686A"/>
<path d="M6.45659 10.0565H4.10876V12.4043H6.45659V10.0565Z" fill="#27686A"/>
</svg>
