<svg width="30" height="30" viewBox="0 0 30 30" fill="none" xmlns="http://www.w3.org/2000/svg">
<circle cx="15" cy="15" r="15" fill="white"/>
<path fill-rule="evenodd" clip-rule="evenodd" d="M8.67948 12.2151C8.33334 12.8475 8.33334 13.6103 8.33334 15.1359V16.1499C8.33334 18.7505 8.33334 20.0508 9.11439 20.8587C9.89544 21.6666 11.1525 21.6666 13.6667 21.6666H16.3333C18.8475 21.6666 20.1046 21.6666 20.8856 20.8587C21.6667 20.0508 21.6667 18.7505 21.6667 16.1499V15.1359C21.6667 13.6103 21.6667 12.8475 21.3205 12.2151C20.9744 11.5828 20.342 11.1903 19.0773 10.4054L17.744 9.57789C16.4071 8.74817 15.7386 8.33331 15 8.33331C14.2614 8.33331 13.5929 8.74817 12.256 9.57789L10.9227 10.4054C9.65797 11.1903 9.02561 11.5828 8.67948 12.2151ZM14.5 19C14.5 19.2761 14.7239 19.5 15 19.5C15.2762 19.5 15.5 19.2761 15.5 19V17C15.5 16.7238 15.2762 16.5 15 16.5C14.7239 16.5 14.5 16.7238 14.5 17V19Z" fill="#27686A"/>
</svg>
