<svg width="60" height="60" viewBox="0 0 60 60" fill="none" xmlns="http://www.w3.org/2000/svg">
<g filter="url(#filter0_d_32_3440)">
<circle cx="30" cy="26" r="26" fill="white"/>
</g>
<path d="M21.5663 15.1463C20.3976 15.5525 19.5067 16.4869 19.2125 17.6407C19.1063 18.0307 19.0817 18.6482 19.0817 20.8908C19.0817 22.459 19.1226 23.8078 19.1717 24.0109C19.474 25.3272 20.6264 26.4728 21.9504 26.7735C22.1465 26.8222 22.7023 26.8629 23.1927 26.8629H24.0672V32.1443H26.1103V19.3064H24.0672L24.0508 22.0446L24.0263 24.7909L23.3316 24.8153C22.5307 24.8478 22.1384 24.7503 21.7706 24.4497C21.2312 23.9946 21.2067 23.8728 21.2067 20.8664C21.2067 18.372 21.2148 18.1363 21.362 17.8601C21.5418 17.5188 21.7134 17.3482 22.0812 17.1613C22.3182 17.0476 23.1109 17.0313 30.0905 17.0313C37.4297 17.0313 37.8546 17.0394 38.1652 17.1857C38.9498 17.5432 39.0234 17.8032 39.0234 20.1595V22.069H41.1483V20.0945C41.1483 19.0139 41.1074 17.9657 41.0584 17.7626C40.7805 16.5682 39.7998 15.52 38.5984 15.1463C38.1325 15.0081 37.6667 15 30.0496 15C22.5715 15.0081 21.9504 15.0163 21.5663 15.1463Z" fill="#27686A"/>
<path d="M34.3648 24.8315H27.3362V26.8628H34.3648V32.1442H36.408V26.8466L37.1763 26.8791C37.8383 26.9035 37.9854 26.9441 38.2714 27.1228C38.4594 27.2529 38.6637 27.4804 38.77 27.6916C38.9334 28.0329 38.9416 28.171 38.9416 30.5842C38.9416 32.6968 38.9171 33.1762 38.819 33.428C38.6474 33.8262 38.394 34.0862 38.0017 34.2649C37.6912 34.4112 37.2907 34.4193 30.0087 34.4193C23.2744 34.4193 22.31 34.4031 22.0403 34.2974C21.6562 34.1349 21.3946 33.8912 21.1985 33.5093C21.0595 33.233 21.0432 33.0136 21.0432 31.2505V29.3004H19V31.3642C19 33.2005 19.0163 33.4849 19.1635 33.9562C19.4822 34.9718 20.3158 35.8169 21.411 36.2231L21.9013 36.41H38.0017L38.5575 36.2231C39.6772 35.8331 40.5353 34.9475 40.8622 33.8343C40.9766 33.4443 40.993 32.9649 40.9685 30.4217L40.9491 28.096C40.9457 27.6851 40.8525 27.2798 40.676 26.9082L40.6661 26.8872C40.4781 26.4728 40.2493 26.1641 39.9305 25.8553C39.1296 25.1078 38.4022 24.8315 37.1681 24.8315H36.408V19.3064H34.3648V24.8315Z" fill="#27686A"/>
<defs>
<filter id="filter0_d_32_3440" x="0" y="0" width="60" height="60" filterUnits="userSpaceOnUse" color-interpolation-filters="sRGB">
<feFlood flood-opacity="0" result="BackgroundImageFix"/>
<feColorMatrix in="SourceAlpha" type="matrix" values="0 0 0 0 0 0 0 0 0 0 0 0 0 0 0 0 0 0 127 0" result="hardAlpha"/>
<feOffset dy="4"/>
<feGaussianBlur stdDeviation="2"/>
<feComposite in2="hardAlpha" operator="out"/>
<feColorMatrix type="matrix" values="0 0 0 0 0 0 0 0 0 0 0 0 0 0 0 0 0 0 0.25 0"/>
<feBlend mode="normal" in2="BackgroundImageFix" result="effect1_dropShadow_32_3440"/>
<feBlend mode="normal" in="SourceGraphic" in2="effect1_dropShadow_32_3440" result="shape"/>
</filter>
</defs>
</svg>
