<svg width="80" height="33" viewBox="0 0 80 33" fill="none" xmlns="http://www.w3.org/2000/svg">
<path d="M54.3162 3.49471C52.8202 4.01474 51.6799 5.21083 51.3033 6.68773C51.1673 7.18696 51.1359 7.97742 51.1359 10.848C51.1359 12.8554 51.1882 14.5819 51.251 14.8419C51.638 16.5268 53.1131 17.9933 54.8079 18.3781C55.059 18.4405 55.7704 18.4925 56.3981 18.4925H57.5175V25.253H60.1329V8.81987H57.5175L57.4965 12.3249L57.4651 15.8404L56.5759 15.8716C55.5507 15.9132 55.0485 15.7884 54.5778 15.4035C53.8873 14.8211 53.8559 14.6651 53.8559 10.8168C53.8559 7.62379 53.8664 7.32217 54.0547 6.96855C54.2848 6.53172 54.5045 6.3133 54.9753 6.07409C55.2787 5.92848 56.2935 5.90767 65.2276 5.90767C74.6221 5.90767 75.1661 5.91807 75.5637 6.10529C76.568 6.56292 76.6621 6.89574 76.6621 9.91195V12.3561H79.3822V9.82874C79.3822 8.44545 79.3298 7.10376 79.2671 6.84374C78.9114 5.31483 77.656 3.97314 76.1181 3.49471C75.5218 3.3179 74.9255 3.3075 65.1753 3.3075C55.603 3.3179 54.8079 3.3283 54.3162 3.49471Z" fill="#1C211C"/>
<path d="M70.699 15.8923H61.7021V18.4925H70.699V25.253H73.3144V18.4717L74.2978 18.5133C75.1452 18.5445 75.3335 18.5965 75.6997 18.8253C75.9403 18.9918 76.2018 19.283 76.3378 19.5534C76.547 19.9902 76.5575 20.167 76.5575 23.2561C76.5575 25.9602 76.5261 26.5739 76.4006 26.8963C76.1809 27.4059 75.8566 27.7388 75.3544 27.9676C74.9569 28.1548 74.4443 28.1652 65.123 28.1652C56.5027 28.1652 55.2682 28.1444 54.923 28.0092C54.4313 27.8012 54.0965 27.4891 53.8454 27.0003C53.6676 26.6467 53.6466 26.3659 53.6466 24.1089V21.6127H51.0312V24.2545C51.0312 26.6051 51.0522 26.9691 51.2405 27.5723C51.6485 28.8724 52.7156 29.9541 54.1174 30.4741L54.7451 30.7134H75.3544L76.0658 30.4741C77.4991 29.9749 78.5975 28.8412 79.016 27.4163C79.1624 26.9171 79.1834 26.3035 79.152 23.048L79.1272 20.071C79.1229 19.545 79.0036 19.0262 78.7777 18.5506L78.7649 18.5237C78.5243 17.9933 78.2314 17.5981 77.8234 17.2028C76.7981 16.246 75.867 15.8923 74.2873 15.8923H73.3144V8.81986H70.699V15.8923Z" fill="#1C211C"/>
<path d="M0 15.9427C1.16239 15.7017 2.16884 15.3969 3.01937 15.0283C3.8699 14.674 4.51488 14.2983 4.95432 13.9014C5.40794 13.5187 5.64183 13.1714 5.65601 12.8595L5.67727 11.9452C5.67727 11.8743 5.75523 11.7184 5.91116 11.4774C6.06709 11.2222 6.24429 10.9954 6.44274 10.797C6.6412 10.5985 6.81131 10.4993 6.95306 10.4993C7.16569 10.4993 7.27201 10.7544 7.27201 11.2648C7.27201 12.3563 7.14443 13.3273 6.88927 14.1778C6.64829 15.0283 6.02457 15.8505 5.01811 16.6443C4.01165 17.4382 2.4807 18.0194 0.425264 18.3879L0 15.9427ZM4.99685 5.54496L7.05938 5.37486C7.20113 7.99732 7.27201 9.96062 7.27201 11.2648C7.27201 12.0444 7.18695 12.6752 7.01685 13.1572C6.86092 13.6391 6.66955 13.9794 6.44274 14.1778C6.21594 14.3904 6.0033 14.4968 5.80485 14.4968C5.70562 14.4968 5.62766 14.4755 5.57095 14.433C5.51425 14.3904 5.4859 14.3337 5.4859 14.2629L4.99685 5.54496ZM7.27201 0.909591V3.35486H4.89053V0.909591H7.27201Z" fill="#27686A"/>
<path d="M8.50605 0.233894L10.5686 0V13.5612L8.71868 13.7313L8.50605 0.233894Z" fill="#27686A"/>
<path d="M7.54732 15.9427C8.70971 15.7017 9.71617 15.3969 10.5667 15.0283C11.4172 14.674 12.0622 14.2983 12.5016 13.9014C12.9553 13.5187 13.1892 13.1714 13.2033 12.8595L13.2246 11.9452C13.2246 11.8743 13.3026 11.7184 13.4585 11.4774C13.6144 11.2222 13.7916 10.9954 13.9901 10.797C14.1885 10.5985 14.3586 10.4993 14.5004 10.4993C14.713 10.4993 14.8193 10.7544 14.8193 11.2648C14.8193 12.3563 14.6918 13.3273 14.4366 14.1778C14.1956 15.0283 13.5719 15.8505 12.5654 16.6443C11.559 17.4382 10.028 18.0194 7.97258 18.3879L7.54732 15.9427ZM12.5654 5.84265L14.628 5.67254C14.7555 8.02567 14.8193 9.88974 14.8193 11.2648C14.8193 12.0444 14.7343 12.6752 14.5642 13.1572C14.4082 13.6391 14.2169 13.9794 13.9901 14.1778C13.7633 14.3904 13.5506 14.4968 13.3522 14.4968C13.2529 14.4968 13.175 14.4755 13.1183 14.433C13.0616 14.3904 13.0332 14.3337 13.0332 14.2629L12.5654 5.84265ZM17.4985 13.5612C16.8748 13.5612 16.3574 13.5187 15.9463 13.4336C15.5494 13.3486 15.2021 13.1643 14.9044 12.8808C14.6067 12.5973 14.3657 12.172 14.1814 11.605C14.068 11.2364 13.9901 10.8537 13.9475 10.4568C13.9192 10.0457 13.905 9.52118 13.905 8.88328L13.8837 7.86265L14.6705 6.50181L14.7768 8.88328C14.8052 9.507 14.8973 9.96771 15.0532 10.2654C15.2092 10.5631 15.4643 10.7686 15.8187 10.882C16.1873 10.9813 16.7472 11.0309 17.4985 11.0309L17.7111 11.2435V13.3486L17.4985 13.5612Z" fill="#27686A"/>
<path d="M16.0783 11.0309H16.7374C17.4462 11.0309 18.0274 10.9813 18.481 10.882C18.9488 10.7828 19.2749 10.6836 19.4591 10.5843L19.2678 5.05591L21.2878 4.94959V8.47928C21.2878 9.88265 21.068 10.96 20.6286 11.7113C20.1892 12.4484 19.6009 12.9446 18.8638 13.1997C18.1266 13.4407 17.1981 13.5612 16.0783 13.5612V11.0309ZM23.9457 13.5612C23.2227 13.5612 22.6061 13.5257 22.0958 13.4549C21.5996 13.384 21.1247 13.1501 20.6711 12.7532C20.2175 12.3421 19.9907 11.69 19.9907 10.797V5.58749H21.2878V9.26602C21.2878 9.97479 21.5075 10.4497 21.9469 10.6907C22.3864 10.9175 23.0526 11.0309 23.9457 11.0309L24.1583 11.2435V13.3486L23.9457 13.5612ZM19.9907 15.2835V17.5161H17.3966V15.2835H19.9907ZM22.5848 15.2835V17.5161H19.9907V15.2835H22.5848Z" fill="#27686A"/>
<path d="M29.1222 11.0309L29.3348 11.2435V13.3486L29.1222 13.5612H22.5306V11.0309H29.1222Z" fill="#27686A"/>
<path d="M34.2871 11.0309L34.4997 11.2435V13.3486L34.2871 13.5612H27.6955V11.0309H34.2871Z" fill="#27686A"/>
<path d="M39.452 11.0309L39.6646 11.2435V13.3486L39.452 13.5612H32.8604V11.0309H39.452Z" fill="#27686A"/>
<path d="M38.0253 11.0309C38.5782 11.0309 39.209 10.9954 39.9177 10.9245C40.6265 10.8537 41.1227 10.7403 41.4062 10.5843L41.1723 4.67317L43.2773 4.56686V9.73381C43.2773 11.1372 42.8237 12.1295 41.9165 12.7107C41.0234 13.2777 39.7264 13.5612 38.0253 13.5612V11.0309Z" fill="#27686A"/>
<path d="M36.7853 2.45708H39.5495V4.62593H36.7853V2.45708ZM34.0211 2.45708H36.7853V4.62593H34.0211V2.45708ZM35.6371 0.330766H37.9335V2.45708H35.6371V0.330766Z" fill="#27686A"/>
<path d="M0.0212632 25.4047L0.170106 24.0651C0.269334 23.2004 0.481966 22.5058 0.808001 21.9813C1.14821 21.4427 1.67979 21.0103 2.40274 20.6843L6.74043 18.6855L6.16632 21.2584L2.46653 22.9594C2.05544 23.1437 1.82863 23.4201 1.78611 23.7887L1.59474 25.915L0.0212632 25.4047ZM3.0619 28.339C2.14049 28.339 1.39628 28.1547 0.829264 27.7862C0.276421 27.4176 0 26.7726 0 25.8512C0 25.6528 0.00708774 25.5039 0.0212632 25.4047C0.0212632 25.3055 0.0921405 25.2559 0.233895 25.2559C0.418176 25.2559 0.673334 25.3267 0.99937 25.4685C1.32541 25.6102 1.53095 25.6953 1.616 25.7236C1.89951 25.7803 2.39565 25.8087 3.10442 25.8087C3.9833 25.8087 4.89762 25.752 5.84738 25.6386L5.63474 21.1095L6.61285 21.6199L7.20822 24.1289C7.3358 24.6392 7.39959 25.0999 7.39959 25.511C7.39959 26.5033 7.03811 27.2262 6.31517 27.6799C5.60639 28.1193 4.52197 28.339 3.0619 28.339ZM8.97306 29.7211C8.12254 29.7211 7.41376 29.4234 6.84675 28.8281C6.2939 28.2327 5.98204 27.4672 5.91117 26.5316L5.25201 18.5036L7.12317 18.1209C7.32162 22.657 7.4492 24.4266 7.5059 25.3196C7.54843 26.0001 7.69019 26.482 7.93117 26.7655C8.18633 27.0491 8.63285 27.1908 9.27075 27.1908H10.0787L10.2914 27.4034V29.5085L10.0787 29.7211H8.97306Z" fill="#1C211C"/>
<path d="M8.66004 27.1908C10.0918 27.1908 11.077 27.042 11.6156 26.7443L11.3817 17.8114L13.4443 17.5775V24.6392C13.4443 25.9859 13.2458 27.0349 12.8489 27.7862C12.452 28.5233 11.9062 29.0336 11.2116 29.3171C10.517 29.5865 9.6665 29.7211 8.66004 29.7211V27.1908ZM15.9533 29.7211C15.2871 29.7211 14.7059 29.6857 14.2097 29.6148C13.7278 29.5439 13.26 29.31 12.8064 28.9131C12.3669 28.502 12.1472 27.85 12.1472 26.9569V23.406H13.4443V25.426C13.4443 26.1347 13.6569 26.6096 14.0822 26.8506C14.5074 27.0774 15.1311 27.1908 15.9533 27.1908L16.1659 27.4034V29.5085L15.9533 29.7211Z" fill="#1C211C"/>
<path d="M21.1225 27.1908L21.3352 27.4034V29.5085L21.1225 29.7211H14.5309V27.1908H21.1225Z" fill="#1C211C"/>
<path d="M27.2325 27.1908L27.4451 27.4034V29.5085L27.2325 29.7211H20.6409V27.1908H27.2325Z" fill="#1C211C"/>
<path d="M25.8058 27.1908H26.4649C27.1737 27.1908 27.7549 27.1412 28.2085 27.042C28.6763 26.9427 29.0024 26.8435 29.1866 26.7443L28.9953 21.2159L31.0153 21.1095V24.6392C31.0153 26.0426 30.7955 27.1199 30.3561 27.8712C29.9167 28.6084 29.3284 29.1045 28.5913 29.3597C27.8541 29.6006 26.9256 29.7211 25.8058 29.7211V27.1908ZM33.6732 29.7211C32.9502 29.7211 32.3336 29.6857 31.8233 29.6148C31.3271 29.5439 30.8523 29.31 30.3986 28.9131C29.945 28.502 29.7182 27.85 29.7182 26.9569V21.7474H31.0153V25.426C31.0153 26.1347 31.235 26.6096 31.6744 26.8506C32.1139 27.0774 32.7801 27.1908 33.6732 27.1908L33.8858 27.4034V29.5085L33.6732 29.7211ZM28.6763 30.4346H31.0578V32.8799H28.6763V30.4346Z" fill="#1C211C"/>
<path d="M40.572 29.7849C40.1326 29.7849 39.5089 29.6999 38.7009 29.5298C37.907 29.3597 37.177 29.1258 36.5107 28.8281C35.8587 28.5162 35.483 28.1618 35.3838 27.7649C35.3413 27.5948 35.32 27.4034 35.32 27.1908C35.32 26.7655 35.3909 26.3332 35.5326 25.8938C36.0288 26.2481 36.8368 26.56 37.9566 26.8293C39.0765 27.0987 40.2672 27.2829 41.5289 27.3822V23.1508H38.871C38.0771 23.1508 37.5739 23.6044 37.3613 24.5116L36.851 26.8081C36.6383 27.772 36.1847 28.502 35.4901 28.9982C34.7955 29.4801 34.0017 29.7211 33.1086 29.7211H32.2581V27.1908H33.1086C33.8032 27.1908 34.3065 27.127 34.6183 26.9994C34.9444 26.8577 35.1712 26.638 35.2987 26.3403C35.4263 26.0426 35.561 25.5394 35.7027 24.8306C35.8445 24.0935 35.9437 23.6044 36.0004 23.3634C36.1989 22.4846 36.6171 21.8254 37.255 21.386C37.8929 20.9465 38.6938 20.7268 39.6577 20.7268H43.1236V27.2971C43.1236 28.9557 42.2731 29.7849 40.572 29.7849Z" fill="#1C211C"/>
<path d="M34.9661 17.9371L36.6661 17.6293C36.6074 17.4926 36.5781 17.3411 36.5781 17.1751C36.5781 17.0187 36.5879 16.9015 36.6074 16.8233L36.9885 14.7424H37.5746C38.2878 14.7424 38.8056 14.8938 39.128 15.1967C39.4504 15.4995 39.6116 15.9587 39.6116 16.5742C39.6116 17.0139 39.5042 17.3851 39.2892 17.688C39.0841 17.9908 38.6884 18.2009 38.1022 18.3181L34.9661 18.9336V17.9371ZM37.3109 17.2776C37.3695 17.2874 37.4672 17.2923 37.6039 17.2923C37.9752 17.2923 38.4148 17.2483 38.9229 17.1604C38.9131 16.7696 38.8789 16.4716 38.8203 16.2665C38.7617 16.0613 38.6395 15.9148 38.4539 15.8268C38.2781 15.7291 38.0045 15.6803 37.6333 15.6803H37.5453L37.3109 17.2776Z" fill="#1C211C"/>
</svg>
