<svg width="20" height="20" viewBox="0 0 20 20" fill="none" xmlns="http://www.w3.org/2000/svg">
<path opacity="0.4" d="M15.8333 16.6666V15.4166M4.16663 16.6666V15.4166" stroke="#27686A" stroke-width="1.5" stroke-linecap="round"/>
<path d="M1.66663 12.5C1.66663 11.7234 1.66663 11.3351 1.79349 11.0289C1.96265 10.6205 2.28711 10.296 2.69549 10.1269C3.00177 10 3.39006 10 4.16663 10H15.8333C16.6099 10 16.9981 10 17.3044 10.1269C17.7128 10.296 18.0373 10.6205 18.2064 11.0289C18.3333 11.3351 18.3333 11.7234 18.3333 12.5C18.3333 13.2766 18.3333 13.6649 18.2064 13.9711C18.0373 14.3795 17.7128 14.704 17.3044 14.8731C16.9981 15 16.6099 15 15.8333 15H4.16663C3.39006 15 3.00177 15 2.69549 14.8731C2.28711 14.704 1.96265 14.3795 1.79349 13.9711C1.66663 13.6649 1.66663 13.2766 1.66663 12.5Z" stroke="#27686A" stroke-width="1.5"/>
<path d="M17.5 10C17.5 6.85734 17.5 5.286 16.5237 4.30968C15.5474 3.33337 13.976 3.33337 10.8333 3.33337H9.16667C6.02397 3.33337 4.45262 3.33337 3.47631 4.30968C2.5 5.286 2.5 6.85734 2.5 10" stroke="#27686A" stroke-width="1.5"/>
<path opacity="0.4" d="M15.4167 9.99996V8.74996C15.4167 7.17861 15.4167 6.39294 14.9286 5.90478C14.4404 5.41663 13.6547 5.41663 12.0834 5.41663H7.91671C6.34536 5.41663 5.55968 5.41663 5.07153 5.90478C4.58337 6.39294 4.58337 7.17861 4.58337 8.74996V9.99996M10 5.83329V9.99996" stroke="#27686A" stroke-width="1.5"/>
</svg>
