<svg width="25" height="24" viewBox="0 0 25 24" fill="none" xmlns="http://www.w3.org/2000/svg">
<path d="M14.25 4C14.25 5.10457 13.3546 6 12.25 6C11.1454 6 10.25 5.10457 10.25 4C10.25 2.89543 11.1454 2 12.25 2C13.3546 2 14.25 2.89543 14.25 4Z" stroke="#27686A" stroke-width="1.5"/>
<path d="M6.29779 10.8492L6.53497 10.1377H6.53497L6.29779 10.8492ZM8.47309 11.5743L8.23592 12.2859H8.23592L8.47309 11.5743ZM9.26682 13.2562L8.56681 12.987H8.56681L9.26682 13.2562ZM8.02003 16.4979L8.72004 16.7671H8.72004L8.02003 16.4979ZM18.2022 10.8492L17.965 10.1377H17.965L18.2022 10.8492ZM16.0269 11.5743L16.2641 12.2859H16.2641L16.0269 11.5743ZM15.2332 13.2562L15.9332 12.987L15.2332 13.2562ZM16.48 16.4979L15.78 16.7671L16.48 16.4979ZM10.6742 17.7577L11.3254 18.1298L10.6742 17.7577ZM12.25 15L12.9012 14.6279C12.7677 14.3942 12.5191 14.25 12.25 14.25C11.9809 14.25 11.7323 14.3942 11.5988 14.6279L12.25 15ZM17.3965 7.89715L17.2394 7.1638L17.3965 7.89715ZM15.499 8.30377L15.6561 9.03712V9.03712L15.499 8.30377ZM9.00102 8.30377L9.15817 7.57042V7.57042L9.00102 8.30377ZM7.10345 7.89715L6.94631 8.6305L7.10345 7.89715ZM13.8258 17.7577L13.1746 18.1298V18.1298L13.8258 17.7577ZM15.2884 8.34851L15.1365 7.61405L15.1365 7.61406L15.2884 8.34851ZM9.21161 8.34851L9.05969 9.08296L9.05969 9.08296L9.21161 8.34851ZM15.5337 11.7668L15.9277 12.405L15.5337 11.7668ZM15.0682 12.7532L15.8113 12.6516V12.6516L15.0682 12.7532ZM8.96625 11.7668L8.5723 12.405H8.5723L8.96625 11.7668ZM9.43177 12.7532L10.1749 12.8548V12.8548L9.43177 12.7532ZM6.06062 11.5608L8.23592 12.2859L8.71026 10.8628L6.53497 10.1377L6.06062 11.5608ZM8.56681 12.987L7.32002 16.2287L8.72004 16.7671L9.96683 13.5255L8.56681 12.987ZM17.965 10.1377L15.7897 10.8628L16.2641 12.2859L18.4394 11.5608L17.965 10.1377ZM14.5332 13.5255L15.78 16.7671L17.18 16.2287L15.9332 12.987L14.5332 13.5255ZM11.3254 18.1298L12.9012 15.3721L11.5988 14.6279L10.023 17.3856L11.3254 18.1298ZM17.2394 7.1638L15.3418 7.57042L15.6561 9.03712L17.5537 8.6305L17.2394 7.1638ZM9.15817 7.57042L7.2606 7.1638L6.94631 8.6305L8.84387 9.03712L9.15817 7.57042ZM11.5988 15.3721L13.1746 18.1298L14.477 17.3856L12.9012 14.6279L11.5988 15.3721ZM15.3418 7.57042C15.2353 7.59324 15.1856 7.6039 15.1365 7.61405L15.4403 9.08296C15.4958 9.07148 15.5516 9.05952 15.6561 9.03712L15.3418 7.57042ZM8.84387 9.03712C8.9484 9.05952 9.00416 9.07148 9.05969 9.08296L9.36353 7.61406C9.31443 7.6039 9.26468 7.59324 9.15817 7.57042L8.84387 9.03712ZM15.1365 7.61406C13.2323 8.00793 11.2677 8.00793 9.36353 7.61406L9.05969 9.08296C11.1643 9.51829 13.3357 9.51829 15.4403 9.08296L15.1365 7.61406ZM9.39506 19.25C10.1929 19.25 10.9295 18.8225 11.3254 18.1298L10.023 17.3856C9.89422 17.6109 9.65459 17.75 9.39506 17.75V19.25ZM15.78 16.7671C15.9622 17.2408 15.6125 17.75 15.1049 17.75V19.25C16.6652 19.25 17.7401 17.6849 17.18 16.2287L15.78 16.7671ZM15.7897 10.8628C15.5678 10.9368 15.3316 11.0102 15.1398 11.1286L15.9277 12.405C15.9188 12.4105 15.9263 12.4039 15.9842 12.382C16.045 12.359 16.127 12.3316 16.2641 12.2859L15.7897 10.8628ZM15.9332 12.987C15.8813 12.8521 15.8504 12.7714 15.8295 12.7098C15.8096 12.6512 15.8099 12.6413 15.8113 12.6516L14.3251 12.8548C14.3557 13.0781 14.4492 13.3071 14.5332 13.5255L15.9332 12.987ZM15.1398 11.1286C14.5507 11.4922 14.2314 12.1689 14.3251 12.8548L15.8113 12.6516C15.7979 12.5536 15.8435 12.4569 15.9277 12.405L15.1398 11.1286ZM18.5 9.39551C18.5 9.73227 18.2845 10.0312 17.965 10.1377L18.4394 11.5608C19.3714 11.2501 20 10.3779 20 9.39551H18.5ZM7.32002 16.2287C6.75994 17.6849 7.83484 19.25 9.39506 19.25V17.75C8.88751 17.75 8.53784 17.2408 8.72004 16.7671L7.32002 16.2287ZM8.23592 12.2859C8.37301 12.3316 8.45501 12.359 8.51583 12.382C8.57371 12.4039 8.58115 12.4105 8.5723 12.405L9.3602 11.1286C9.16842 11.0102 8.93219 10.9368 8.71026 10.8628L8.23592 12.2859ZM9.96683 13.5255C10.0508 13.3071 10.1443 13.0781 10.1749 12.8548L8.68868 12.6516C8.69009 12.6413 8.6904 12.6512 8.67051 12.7098C8.6496 12.7714 8.61869 12.8521 8.56681 12.987L9.96683 13.5255ZM8.5723 12.405C8.65646 12.4569 8.70208 12.5536 8.68868 12.6516L10.1749 12.8548C10.2686 12.1689 9.94929 11.4922 9.3602 11.1286L8.5723 12.405ZM4.5 9.39551C4.5 10.3779 5.12863 11.2501 6.06062 11.5608L6.53497 10.1377C6.21549 10.0312 6 9.73227 6 9.39551H4.5ZM6 9.39551C6 8.89742 6.45927 8.52614 6.94631 8.6305L7.2606 7.1638C5.83979 6.85934 4.5 7.94245 4.5 9.39551H6ZM13.1746 18.1298C13.5705 18.8225 14.3071 19.25 15.1049 19.25V17.75C14.8454 17.75 14.6058 17.6109 14.477 17.3856L13.1746 18.1298ZM20 9.39551C20 7.94245 18.6602 6.85934 17.2394 7.1638L17.5537 8.6305C18.0407 8.52614 18.5 8.89741 18.5 9.39551H20Z" fill="#27686A"/>
<path opacity="0.5" d="M19.7037 14.5C21.2872 15.2961 22.25 16.3475 22.25 17.5C22.25 19.9853 17.7728 22 12.25 22C6.72715 22 2.25 19.9853 2.25 17.5C2.25 16.3475 3.21285 15.2961 4.79631 14.5" stroke="#27686A" stroke-width="1.5" stroke-linecap="round"/>
</svg>
