<svg width="18" height="18" viewBox="0 0 18 18" fill="none" xmlns="http://www.w3.org/2000/svg">
<g clip-path="url(#clip0_28_430)">
<path d="M3.03403 13.8812C2.01134 12.8586 1.5 12.3472 1.5 11.7118C1.5 11.0764 2.01134 10.565 3.03403 9.54236L9.54236 3.03403C10.565 2.01134 11.0764 1.5 11.7118 1.5C12.3472 1.5 12.8586 2.01134 13.8812 3.03403L14.966 4.11875C15.9887 5.14144 16.5 5.65278 16.5 6.28819C16.5 6.92361 15.9887 7.43495 14.966 8.45764L8.45764 14.966C7.43495 15.9887 6.92361 16.5 6.28819 16.5C5.65278 16.5 5.14144 15.9887 4.11875 14.966L3.03403 13.8812Z" stroke="#1C211C" stroke-width="1.5"/>
<path opacity="0.5" d="M6.34833 6.34833L7.40899 7.40899" stroke="#1C211C" stroke-width="1.5" stroke-linecap="round"/>
<path opacity="0.5" d="M9.53033 3.16638L10.591 4.22704" stroke="#1C211C" stroke-width="1.5" stroke-linecap="round"/>
<path opacity="0.5" d="M3.16638 9.53033L4.22704 10.591" stroke="#1C211C" stroke-width="1.5" stroke-linecap="round"/>
<path opacity="0.5" d="M4.75739 7.93933L6.34838 9.53032" stroke="#1C211C" stroke-width="1.5" stroke-linecap="round"/>
<path opacity="0.5" d="M7.93933 4.75739L9.53032 6.34838" stroke="#1C211C" stroke-width="1.5" stroke-linecap="round"/>
</g>
<defs>
<clipPath id="clip0_28_430">
<rect width="18" height="18" rx="5" fill="white"/>
</clipPath>
</defs>
</svg>
