<svg width="14" height="14" viewBox="0 0 14 14" fill="none" xmlns="http://www.w3.org/2000/svg">
<path d="M3.40181 13.9674C2.91181 13.8939 2.43931 13.7294 2.01231 13.4843C1.04631 12.9417 0.325306 11.9721 0.0943058 10.9009C0.0033058 10.4843 -0.00719421 9.95571 0.00330579 6.69665C0.0138058 3.19255 0.0033058 3.37108 0.178306 2.79348C0.262306 2.50643 0.496806 2.01285 0.668306 1.76431C1.29831 0.84715 2.22231 0.259049 3.37031 0.0455124C3.59781 0.00350523 3.93031 4.62888e-06 6.98231 4.62888e-06C10.7098 4.62888e-06 10.5873 -0.00349597 11.1963 0.182036C12.3933 0.560101 13.3453 1.46326 13.7688 2.62195C13.9648 3.16805 13.9753 3.25556 13.9893 4.69431L13.9998 5.99653L13.7653 6.15406C13.4328 6.3746 12.9953 6.77367 12.3828 7.40728C11.6793 8.1389 10.9653 8.81802 10.6048 9.10157C9.82431 9.71417 9.1103 10.0642 8.38231 10.1903C8.0043 10.2533 7.37781 10.2288 7.01031 10.1342C6.68131 10.0502 6.70231 10.0362 6.57631 10.4038C6.47481 10.6943 6.41181 10.9989 6.38731 11.3069L6.36981 11.545L6.28231 11.5275C5.55781 11.3875 4.84031 10.7784 4.56381 10.0677C4.46931 9.84019 4.41681 9.60215 4.40981 9.35711L4.39931 9.15758L4.21381 8.99305C3.82881 8.64999 3.58031 8.22642 3.49981 7.79234C3.37381 7.09572 3.70281 6.30809 4.41681 5.60097C5.16931 4.85184 6.28231 4.26374 7.37081 4.0362C7.76281 3.95568 8.45581 3.93468 8.80231 3.99419C9.48131 4.10971 10.0343 4.44577 10.3808 4.94985C10.4893 5.10738 10.4963 5.13189 10.4858 5.27191C10.4858 5.37693 10.4438 5.47844 10.3773 5.55896C10.1008 5.93702 9.27481 6.34659 8.38931 6.53913C6.82481 6.87868 5.82731 6.45511 5.98481 5.51345C5.99881 5.41893 6.00931 5.33492 6.00231 5.33142C5.98481 5.31392 5.82731 5.39093 5.65931 5.50645C5.37231 5.70248 5.12031 6.08055 5.03281 6.44461C5.01181 6.53563 5.00131 6.68265 5.01181 6.82267C5.02231 7.01521 5.04331 7.08872 5.12731 7.25325C5.18331 7.36177 5.29181 7.51579 5.37231 7.59631L5.51581 7.74333L5.45981 7.81334C5.29181 8.03038 5.15531 8.26842 5.05731 8.52397C4.94531 8.86703 4.92431 9.23109 4.99431 9.58115C5.05731 9.85069 5.24631 10.2183 5.43531 10.4388C5.57881 10.6033 5.91131 10.8834 5.96381 10.8834C5.97781 10.8834 5.98831 10.8554 5.98831 10.8204C5.98831 10.6873 6.09681 10.2533 6.18431 10.0467C6.43631 9.43062 6.98931 8.90203 7.86431 8.44695C8.01131 8.36994 8.43131 8.17391 8.80231 8.00588C9.61431 7.63832 10.0553 7.41428 10.3003 7.24625C11.0003 6.75966 11.4343 6.04204 11.5778 5.13189C11.6303 4.79933 11.6303 4.17972 11.5778 3.84366C11.3573 2.42242 10.2688 1.45275 8.70431 1.29523C6.96131 1.1167 4.73881 2.43292 3.37031 4.45977C2.70531 5.44694 2.25381 6.53913 2.06481 7.63481C1.99131 8.05839 1.96331 8.84952 2.00881 9.23809C2.12431 10.2323 2.49881 11.0339 3.14281 11.664C3.46481 11.9826 3.84281 12.2416 4.25931 12.4306C5.66981 13.0887 7.23431 13.1028 8.60981 12.4726C9.20481 12.1996 9.78581 11.776 10.4123 11.1599C11.0213 10.5613 11.4308 10.0642 12.5543 8.55897C13.1738 7.72933 13.6673 7.17624 13.9088 7.03971L13.9998 6.9907L13.9893 8.79351C13.9788 10.5403 13.9753 10.6068 13.9158 10.8694C13.5588 12.4306 12.4003 13.5753 10.8183 13.9289L10.5383 13.9919L7.09431 13.9989C4.26981 14.0024 3.60481 13.9989 3.40181 13.9674Z" fill="#616161"/>
</svg>
