<svg width="19" height="19" viewBox="0 0 19 19" fill="none" xmlns="http://www.w3.org/2000/svg">
<path d="M14.0069 8.80613C13.9251 8.76691 13.842 8.72915 13.7577 8.693C13.6111 5.99076 12.1345 4.44372 9.65521 4.42789C9.64398 4.42782 9.63281 4.42782 9.62158 4.42782C8.13863 4.42782 6.90528 5.06082 6.14616 6.21267L7.50971 7.14804C8.0768 6.28764 8.96679 6.10423 9.62223 6.10423C9.6298 6.10423 9.6374 6.10423 9.64489 6.10429C10.4612 6.1095 11.0773 6.34685 11.476 6.80972C11.7661 7.1467 11.9602 7.61237 12.0562 8.20006C11.3325 8.07705 10.5497 8.03923 9.71292 8.0872C7.3557 8.22298 5.84029 9.59776 5.94207 11.5081C5.99372 12.4771 6.47645 13.3107 7.3013 13.8553C7.9987 14.3156 8.89691 14.5407 9.83041 14.4898C11.0632 14.4222 12.0303 13.9518 12.705 13.0918C13.2174 12.4387 13.5415 11.5923 13.6846 10.5258C14.2721 10.8804 14.7075 11.347 14.948 11.9079C15.3569 12.8613 15.3808 14.4281 14.1023 15.7055C12.9822 16.8245 11.6358 17.3086 9.60094 17.3235C7.34377 17.3068 5.6367 16.5829 4.52682 15.172C3.4875 13.8508 2.95037 11.9425 2.93033 9.5C2.95037 7.05749 3.4875 5.14916 4.52682 3.82798C5.6367 2.41705 7.34374 1.69318 9.60091 1.6764C11.8745 1.69331 13.6113 2.42066 14.7637 3.8384C15.3287 4.53364 15.7547 5.40795 16.0356 6.42737L17.6334 6.00105C17.293 4.74626 16.7574 3.66499 16.0284 2.76826C14.5511 0.950661 12.3904 0.0193115 9.60649 0H9.59534C6.81706 0.0192444 4.6806 0.954136 3.24533 2.77868C1.96813 4.4023 1.30932 6.66145 1.28718 9.49332L1.28711 9.5L1.28718 9.50668C1.30932 12.3385 1.96813 14.5977 3.24533 16.2213C4.6806 18.0458 6.81706 18.9808 9.59534 19H9.60649C12.0765 18.9829 13.8176 18.3362 15.2519 16.9032C17.1285 15.0284 17.072 12.6784 16.4535 11.2358C16.0097 10.2013 15.1637 9.36108 14.0069 8.80613ZM9.74216 12.8158C8.70903 12.874 7.63572 12.4103 7.5828 11.417C7.54357 10.6806 8.1069 9.85882 9.80556 9.76093C10.0001 9.74971 10.191 9.74423 10.3785 9.74423C10.9955 9.74423 11.5727 9.80417 12.0975 9.91889C11.9018 12.3634 10.7537 12.7603 9.74216 12.8158Z" fill="#808080"/>
</svg>
