<svg width="9" height="9" viewBox="0 0 9 9" fill="none" xmlns="http://www.w3.org/2000/svg">
<g clip-path="url(#clip0_32_1304)">
<path d="M3.43244 2.02814C3.90743 1.17605 4.14493 0.75 4.5 0.75C4.85507 0.75 5.09257 1.17605 5.56756 2.02814L5.69045 2.24859C5.82543 2.49073 5.89292 2.6118 5.99815 2.69168C6.10338 2.77156 6.23443 2.80121 6.49654 2.86052L6.73517 2.91451C7.65755 3.12321 8.11874 3.22756 8.22847 3.5804C8.33819 3.93324 8.02378 4.3009 7.39496 5.03622L7.23228 5.22646C7.05359 5.43541 6.96425 5.53989 6.92405 5.66914C6.88386 5.7984 6.89737 5.93779 6.92438 6.21658L6.94898 6.4704C7.04405 7.45147 7.09158 7.94201 6.80432 8.16008C6.51706 8.37815 6.08525 8.17933 5.22162 7.78169L4.99819 7.67881C4.75278 7.56582 4.63007 7.50932 4.5 7.50932C4.36993 7.50932 4.24722 7.56582 4.00181 7.67881L3.77838 7.78169C2.91475 8.17933 2.48294 8.37815 2.19568 8.16008C1.90842 7.94201 1.95595 7.45148 2.05102 6.4704L2.07562 6.21658C2.10263 5.93779 2.11614 5.7984 2.07595 5.66914C2.03575 5.53989 1.94641 5.43541 1.76772 5.22646L1.60504 5.03622C0.976218 4.3009 0.661809 3.93324 0.771533 3.5804C0.881257 3.22756 1.34245 3.12321 2.26483 2.91451L2.50346 2.86052C2.76557 2.80121 2.89663 2.77156 3.00185 2.69168C3.10708 2.6118 3.17457 2.49073 3.30955 2.24859L3.43244 2.02814Z" fill="#FFA845"/>
</g>
<defs>
<clipPath id="clip0_32_1304">
<rect width="9" height="9" rx="4.5" fill="white"/>
</clipPath>
</defs>
</svg>
