<svg width="54" height="50" viewBox="0 0 54 50" fill="none" xmlns="http://www.w3.org/2000/svg">
<g opacity="0.4">
<path d="M11.3158 48.457C10.2877 47.9346 9.24387 47.4597 8.24744 46.8898C5.71683 45.4492 3.69234 43.4704 2.18979 40.985C1.44642 39.7502 0.956113 38.373 0.560705 36.9799C0.14948 35.4918 -0.0403157 33.9563 0.00713324 32.4049C0.0229496 31.7875 0.165296 31.1859 0.307642 30.5844C0.940295 27.8615 1.57295 25.1229 2.18979 22.4C2.94897 19.0914 3.69234 15.7829 4.4357 12.4743C4.65713 11.477 4.89438 10.4955 5.11581 9.49816C5.14744 9.37152 5.19489 9.24487 5.24234 9.07074C9.21223 9.03908 13.1821 9.00742 17.1678 9.07074C17.2311 9.43484 17.1362 9.76728 17.0729 10.0839C16.6143 12.0152 16.1556 13.9465 15.6969 15.8937C15.3015 17.5559 14.9377 19.2339 14.5423 20.8961C13.9413 23.4923 13.3245 26.0885 12.7076 28.6847C12.2964 30.4419 11.8694 32.1991 11.474 33.9563C10.9362 36.315 10.4143 38.6579 9.87652 41.0167C9.68672 41.8715 9.57601 42.7422 9.59183 43.6129C9.60764 44.1828 9.57601 44.7527 9.59183 45.3226C9.62346 46.2407 9.92397 47.0323 10.6515 47.618C10.8097 47.7446 10.9678 47.8871 11.1102 48.0296C11.2051 48.1404 11.2842 48.267 11.3791 48.3937C11.3633 48.4095 11.3474 48.4412 11.3158 48.457Z" fill="#808080"/>
<path d="M20.7415 49.3595C20.9155 49.2645 21.0736 49.1853 21.216 49.0745C23.3196 47.7289 25.1701 46.0984 26.7201 44.1354C28.1594 42.3307 29.5037 40.4469 30.3895 38.3098C30.8481 37.2175 31.291 36.1094 31.6389 34.9696C31.9236 34.0989 32.066 33.1807 32.2558 32.2784C32.667 30.2996 32.7461 28.2891 32.6512 26.2628C32.4614 22.131 31.1961 18.3159 29.219 14.7224C28.9976 14.3266 29.0293 14.1683 29.4088 13.8992C29.5512 13.7884 29.7094 13.6934 29.8675 13.6142C31.8604 12.4903 33.9323 11.5721 36.0991 10.8122C36.1782 10.7806 36.2573 10.7647 36.368 10.7331C36.4787 11.2555 36.5894 11.7462 36.6843 12.237C36.8741 13.3293 37.0956 14.4374 37.2379 15.5297C37.317 16.1629 37.3012 16.812 37.317 17.461C37.317 18.4267 37.2854 19.3765 37.3012 20.3422C37.3328 21.9094 37.143 23.445 36.9532 24.9805C36.89 25.4554 36.9058 25.9303 36.8109 26.3894C36.6211 27.3076 36.3997 28.2099 36.1782 29.1123C35.4507 32.0409 34.2803 34.7954 32.7777 37.3916C31.6548 39.3546 30.3895 41.2226 28.9185 42.9481C28.2068 43.7871 27.4002 44.547 26.641 45.3385C25.8344 46.1775 24.9961 46.9532 24.0787 47.6498C23.1614 48.3622 22.2124 49.0429 21.2634 49.7236C20.6782 50.1352 20.5675 50.1035 20.1721 49.5178C17.7522 45.9084 16.0124 42.0141 15.0793 37.7716C14.842 36.6951 14.6048 35.6186 14.4466 34.5263C14.3201 33.6873 14.3043 32.8324 14.2568 31.9934C14.2252 31.3602 14.1777 30.727 14.1777 30.1096C14.2094 27.8458 14.3833 25.6137 14.8578 23.3975C15.2058 21.8144 15.5538 20.2314 16.1231 18.6958C16.6609 17.2236 17.2461 15.783 18.0211 14.4057C18.116 14.2474 18.1951 14.0891 18.2742 13.915C19.0492 12.2053 20.1563 10.6856 21.2793 9.19752C23.6359 6.07891 26.467 3.46688 29.6935 1.26644C30.0573 1.01315 30.4053 0.759866 30.769 0.506578C31.0537 0.316612 31.3542 0.158305 31.6389 0C32.7619 1.04481 35.8619 7.94691 36.1624 10.0365C36.0201 10.084 35.8777 10.1473 35.7354 10.1948C33.8058 10.9072 31.9236 11.6829 30.1206 12.6961C28.9976 13.3134 27.9537 14.0258 26.9731 14.849C25.7553 15.878 24.569 16.9386 23.3828 17.9834C23.1139 18.2209 22.8767 18.4742 22.6711 18.7591C22.5129 18.9808 22.3231 19.1866 22.1492 19.4082C21.9752 19.6298 21.7854 19.8356 21.6114 20.0414C21.4216 20.263 21.2318 20.4847 21.042 20.7063C20.9629 20.8013 20.8839 20.9121 20.8048 21.0229C20.6624 21.2445 20.5517 21.4661 20.4094 21.6719C19.1599 23.5399 18.2267 25.5662 17.515 27.6875C17.4517 27.8775 17.3884 28.0833 17.2935 28.2733C17.0089 28.9223 16.8665 29.603 16.8349 30.3154C16.8191 30.822 16.6767 31.3127 16.5976 31.8193C16.3288 33.624 16.2971 35.4128 16.4553 37.2333C16.6925 40.1145 17.4359 42.869 18.6063 45.4968C19.1441 46.7158 19.7925 47.8872 20.5201 49.0112C20.5833 49.1379 20.6624 49.2328 20.7415 49.3595Z" fill="#808080"/>
<path d="M28.5723 48.2836C28.8095 48.1887 29.0626 48.0779 29.2998 47.9829C30.1064 47.6821 30.834 47.2705 31.4825 46.7164C31.957 46.3048 32.3524 45.8299 32.6687 45.2917C33.4437 43.9619 33.9498 42.5213 34.3136 41.0333C35.1044 37.7247 35.8794 34.432 36.6386 31.1234C37.3661 28.0364 38.0621 24.9337 38.7896 21.8467C39.0427 20.7544 39.3432 19.6621 39.5804 18.554C40.2447 15.6412 40.8932 12.7442 41.5575 9.83138C41.6049 9.59392 41.6524 9.35646 41.7156 9.08734C45.5748 8.99236 49.434 9.05568 53.2932 9.10318C53.2932 9.19816 53.2932 9.24565 53.2774 9.30897C52.787 11.4936 52.2809 13.6782 51.7748 15.8628C51.6641 16.3535 51.4585 16.8285 51.3319 17.3192C51.1738 17.8733 51.0314 18.4432 50.9049 19.0131C50.1299 22.3691 49.3549 25.7252 48.6115 29.0813C48.3427 30.3002 48.058 31.5192 47.5835 32.6748C47.1881 33.6404 46.7452 34.5903 46.2075 35.4768C44.8473 37.7405 43.2182 39.7668 41.2095 41.5082C40.6876 41.9673 40.1814 42.4422 39.6753 42.9171C39.1217 43.4395 38.5207 43.8828 37.8723 44.2785C37.3187 44.611 36.7968 44.9909 36.2432 45.3075C35.1519 45.9249 34.0447 46.4948 32.9534 47.0964C32.8427 47.1597 32.7161 47.2072 32.5896 47.2547C31.4825 47.6188 30.3595 47.9987 29.2365 48.3628C29.0151 48.442 28.7937 48.442 28.5723 48.4103C28.5881 48.3311 28.5723 48.3153 28.5723 48.2836Z" fill="#808080"/>
</g>
</svg>
