<svg width="56" height="55" viewBox="0 0 56 55" fill="none" xmlns="http://www.w3.org/2000/svg">
<g opacity="0.4">
<path d="M0.292969 27.494C1.39271 26.3932 2.45619 25.3288 3.53176 24.2643C5.03031 22.7645 6.51677 21.2646 8.01532 19.7889C8.24493 19.559 8.34162 19.3292 8.34162 18.9905C8.32953 15.5311 8.32953 12.0717 8.32953 8.60017C8.32953 8.44293 8.32953 8.27359 8.32953 8.05586C8.55915 8.05586 8.74042 8.05586 8.90961 8.05586C12.3539 8.05586 15.7981 8.04377 19.2423 8.06796C19.5928 8.06796 19.8345 7.97119 20.0762 7.72927C22.5416 5.26171 25.0069 2.79415 27.4723 0.326589C27.5689 0.229821 27.6656 0.145151 27.8348 0C28.7895 0.979767 29.7322 1.95953 30.6869 2.9272C32.27 4.52386 33.8773 6.10842 35.4605 7.70508C35.7143 7.95909 35.956 8.08005 36.3306 8.08005C39.8232 8.06796 43.3037 8.06796 46.7963 8.06796C46.9292 8.06796 47.0621 8.08005 47.2434 8.09215C47.2434 8.30987 47.2434 8.50341 47.2434 8.69694C47.2434 12.1685 47.2434 15.6521 47.2555 19.1236C47.2555 19.3171 47.3643 19.5711 47.5093 19.7042C49.9384 22.1597 52.3916 24.603 54.8328 27.0464C54.9658 27.1795 55.1108 27.3246 55.3041 27.506C54.7724 28.0383 54.2648 28.5705 53.7452 29.0785C51.727 31.0985 49.7088 33.1185 47.6785 35.1144C47.3401 35.4409 47.2434 35.7796 47.2434 36.2272C47.2555 39.5173 47.2555 42.8194 47.2555 46.1095C47.2555 46.3635 47.2555 46.6175 47.2555 46.9078C47.0863 46.9199 46.9534 46.932 46.8204 46.932C43.352 46.932 39.8715 46.9441 36.4031 46.9199C36.0285 46.9199 35.7626 47.0288 35.4847 47.2949C33.0193 49.7867 30.5298 52.2542 28.0523 54.7339C27.9677 54.8186 27.8711 54.8911 27.7502 55C26.3604 53.609 24.9948 52.2179 23.6171 50.839C22.3965 49.6052 21.1759 48.3715 19.9191 47.174C19.7499 47.0167 19.4357 46.9441 19.194 46.9441C15.7618 46.932 12.3418 46.932 8.90961 46.932C8.31745 46.932 8.32953 46.932 8.32953 46.3393C8.32953 42.9283 8.31745 39.5052 8.34162 36.0941C8.34162 35.695 8.22077 35.4168 7.94281 35.1506C5.47746 32.7073 3.02419 30.2518 0.55884 27.7963C0.486329 27.7359 0.413819 27.6391 0.292969 27.494ZM9.33259 9.09611C9.33259 9.38641 9.33259 9.59204 9.33259 9.79767C9.33259 13.0152 9.34468 16.2327 9.32051 19.4623C9.32051 19.6921 9.22383 19.9824 9.06672 20.1397C7.15728 22.075 5.22367 23.9861 3.30215 25.9094C2.77041 26.4416 2.25075 26.9738 1.70692 27.5181C1.82777 27.6512 1.90028 27.748 1.98488 27.8326C4.32938 30.1671 6.66179 32.5137 9.01838 34.8362C9.23591 35.0539 9.33259 35.2716 9.33259 35.5861C9.32051 38.852 9.33259 42.1179 9.33259 45.3838C9.33259 45.5773 9.33259 45.7587 9.33259 45.9886C9.61055 45.9886 9.80391 45.9886 9.99727 45.9886C13.2481 45.9886 16.4869 45.9886 19.7378 46.0007C19.9795 46.0007 20.2696 46.1216 20.4388 46.2789C22.3482 48.1658 24.2576 50.0649 26.1429 51.976C26.6867 52.5203 27.2064 53.0768 27.7986 53.7057C28.0403 53.4396 28.1974 53.234 28.3666 53.0526C30.6023 50.8027 32.8501 48.565 35.0858 46.3152C35.3155 46.0853 35.5451 45.9765 35.8714 45.9765C39.086 45.9886 42.3006 45.9886 45.5273 45.9886C45.7449 45.9886 45.9745 45.9886 46.2404 45.9886C46.2404 45.7466 46.2404 45.5652 46.2404 45.3838C46.2404 42.1179 46.2403 38.852 46.2524 35.5861C46.2524 35.3805 46.3129 35.1144 46.4458 34.9813C48.5969 32.8161 50.7602 30.6631 52.9234 28.51C53.2376 28.1955 53.5881 27.9052 53.9264 27.6028C53.7935 27.4335 53.7331 27.3609 53.6727 27.3004C51.3161 24.9538 48.9716 22.5951 46.615 20.2606C46.3491 19.9945 46.2404 19.7284 46.2404 19.3413C46.2524 16.1238 46.2524 12.9063 46.2524 9.67671C46.2524 9.49527 46.2524 9.32593 46.2524 9.09611C45.9866 9.09611 45.7811 9.09611 45.5757 9.09611C42.361 9.09611 39.1464 9.1082 35.9197 9.08401C35.6659 9.08401 35.3517 8.96305 35.1704 8.78161C33.5027 7.14867 31.8591 5.50363 30.2277 3.85859C29.43 3.06026 28.6566 2.23774 27.859 1.40312C27.6898 1.56037 27.5931 1.63294 27.5206 1.71762C25.2003 4.02793 22.8799 6.33824 20.5717 8.67275C20.2696 8.97515 19.9674 9.1082 19.5445 9.09611C16.3419 9.08401 13.1394 9.08401 9.93684 9.09611C9.75557 9.09611 9.57429 9.09611 9.33259 9.09611Z" fill="#808080"/>
<path d="M20.4025 20.129C20.6804 19.8992 20.9705 19.6815 21.2484 19.4516C24.9948 16.3309 30.6627 16.343 34.4212 19.4879C38.2279 22.6691 39.3156 27.8462 37.1161 32.237C34.8925 36.652 29.8047 38.8897 25.0311 37.5592C17.8284 35.5392 15.0246 26.8785 19.6895 21.0241C19.9312 20.7217 20.185 20.4193 20.4387 20.1169L20.4025 20.129ZM21.4297 28.9106C21.611 28.9106 21.7681 28.9106 21.9131 28.9106C26.6867 28.9106 31.4603 28.9106 36.2339 28.9106C37.104 28.9106 37.104 28.9106 37.1524 28.0397C37.5512 21.4958 31.0253 16.5365 24.8135 18.6654C19.0852 20.6249 16.644 27.4349 19.8587 32.4668C23.6292 38.3817 32.1492 38.3212 35.823 32.3458C35.956 32.1402 36.0406 31.9104 36.1856 31.6201C35.1704 31.6201 34.252 31.608 33.3335 31.6322C33.116 31.6443 32.838 31.7531 32.6809 31.9104C31.279 33.374 29.575 34.1239 27.5448 34.0514C24.596 33.9546 21.9252 31.729 21.4297 28.9106Z" fill="#808080"/>
<path d="M27.8104 17.0298C26.7832 15.6266 25.7922 14.2719 24.8012 12.9293C23.9915 11.8164 23.1818 10.7157 22.3601 9.61498C22.2271 9.44564 22.1425 9.31258 22.348 9.11905C23.1939 8.32072 24.0157 7.5103 24.9221 6.65149C25.8889 8.6836 26.8194 10.6794 27.8104 12.7841C28.7893 10.7036 29.7319 8.71989 30.6987 6.65149C31.6293 7.54658 32.5357 8.41749 33.4662 9.31258C31.581 11.8769 29.7199 14.417 27.8104 17.0298Z" fill="#808080"/>
<path d="M27.7984 42.2885C26.8074 44.4053 25.8648 46.389 24.9101 48.4211C23.9795 47.526 23.0731 46.6551 22.1426 45.76C24.0278 43.1957 25.8889 40.6435 27.7984 38.0308C29.6957 40.6193 31.5689 43.1715 33.3575 45.627C32.4753 46.5946 31.6293 47.5139 30.723 48.5058C29.732 46.389 28.8014 44.3932 27.7984 42.2885Z" fill="#808080"/>
<path d="M36.694 10.7178C38.0113 10.7178 39.2439 10.7178 40.5491 10.7178C39.7878 12.8467 39.0385 14.8909 38.253 17.0923C40.4404 16.3061 42.4948 15.5682 44.658 14.7941C44.658 15.3021 44.658 15.7013 44.658 16.1004C44.6701 16.8141 44.658 17.5157 44.6943 18.2293C44.7064 18.5196 44.6339 18.6527 44.3197 18.7011C41.3467 19.1486 38.3859 19.6204 35.4251 20.0679C35.4009 20.0679 35.3646 20.0558 35.2559 20.0437C35.7272 16.923 36.2106 13.8022 36.694 10.7178Z" fill="#808080"/>
<path d="M6.80664 24.5928C7.82178 23.6977 8.74025 22.8873 9.74331 22.0043C12.1241 23.7461 14.674 25.6088 17.2965 27.52C14.6982 29.4191 12.1482 31.2818 9.73122 33.0478C8.76442 32.1648 7.84596 31.3181 6.85498 30.4109C8.93361 29.4432 10.9156 28.5119 13.0304 27.52C10.9397 26.5402 8.95778 25.6088 6.80664 24.5928Z" fill="#808080"/>
<path d="M38.2405 37.9581C39.026 40.1475 39.7632 42.2038 40.5608 44.3931C39.6665 44.3931 38.8689 44.3931 38.0592 44.3931C37.89 44.3931 37.7329 44.3931 37.5637 44.3931C36.6815 44.3931 36.6936 44.3931 36.5607 43.5101C36.1498 40.8127 35.7268 38.1154 35.3038 35.4059C35.2797 35.2849 35.2797 35.164 35.2676 35.0067C35.4005 35.0067 35.5093 34.9946 35.6301 35.0067C38.5064 35.4543 41.3826 35.9018 44.2589 36.3615C44.416 36.3856 44.6698 36.5429 44.6698 36.6397C44.6939 37.8251 44.6939 39.0226 44.6939 40.2684C42.5186 39.4943 40.4521 38.7564 38.2405 37.9581Z" fill="#808080"/>
<path d="M48.7057 24.6377C46.6633 25.5933 44.6813 26.5367 42.5785 27.5286C44.6692 28.5084 46.6512 29.4519 48.7057 30.4195C47.8114 31.3509 46.9533 32.246 46.0469 33.1895C43.4849 31.3146 40.935 29.4519 38.3125 27.5407C38.9893 27.0448 39.6056 26.573 40.234 26.1255C42.0468 24.7949 43.8716 23.4765 45.6844 22.1338C45.9623 21.9282 46.1074 21.9282 46.3491 22.1943C47.0983 22.9927 47.8839 23.791 48.7057 24.6377Z" fill="#808080"/>
<path d="M20.415 20.1138C17.2608 19.6179 14.1066 19.134 10.9766 18.6381C10.9766 17.356 10.9766 16.1222 10.9766 14.7916C13.1156 15.5537 15.1701 16.3036 17.3575 17.0777C16.584 14.9126 15.8348 12.8563 15.0855 10.7516C15.2909 10.7274 15.4359 10.7032 15.581 10.7032C16.5599 10.6911 17.5387 10.6911 18.5176 10.6548C18.8318 10.6427 18.9285 10.7516 18.9648 11.0419C19.3998 13.8723 19.8349 16.7028 20.2821 19.5453C20.3062 19.7388 20.3546 19.9324 20.3908 20.1259C20.4029 20.1259 20.415 20.1138 20.415 20.1138Z" fill="#808080"/>
<path d="M20.3672 34.9702C19.8717 38.1514 19.4003 41.248 18.9169 44.3566C17.648 44.3566 16.3912 44.3566 15.0618 44.3566C15.8353 42.2156 16.5724 40.1473 17.358 37.9579C15.1947 38.732 13.1403 39.4699 11.0375 40.2319C11.0133 40.0989 10.9891 39.9779 10.9891 39.869C10.965 38.853 10.965 37.849 10.9287 36.833C10.9166 36.5064 11.0133 36.3854 11.3275 36.3371C14.0588 35.9258 16.79 35.5024 19.5091 35.0791C19.7629 35.0428 20.0167 35.0186 20.3672 34.9702Z" fill="#808080"/>
<path d="M27.8119 8.22693C26.7484 8.23902 25.9266 7.4286 25.9025 6.35207C25.8904 5.31182 26.7363 4.45301 27.7877 4.44092C28.8512 4.44092 29.6851 5.27553 29.6972 6.32788C29.6972 7.40441 28.8875 8.22693 27.8119 8.22693Z" fill="#808080"/>
<path d="M44.6816 12.6057C44.6574 13.6459 43.8114 14.4684 42.7842 14.4563C41.7086 14.4442 40.8748 13.5733 40.8989 12.5089C40.9231 11.4566 41.7812 10.6461 42.8567 10.6703C43.9202 10.6824 44.7057 11.517 44.6816 12.6057Z" fill="#808080"/>
<path d="M12.8013 40.6193C13.8648 40.6072 14.7228 41.4418 14.7228 42.4941C14.7228 43.5344 13.8648 44.4053 12.8255 44.4053C11.7741 44.4053 10.916 43.5586 10.916 42.5183C10.916 41.4539 11.7257 40.6314 12.8013 40.6193Z" fill="#808080"/>
<path d="M44.6811 42.505C44.6811 43.5574 43.8351 44.4162 42.7958 44.4041C41.7444 44.392 40.8984 43.5332 40.8984 42.4929C40.8984 41.4527 41.7323 40.606 42.7595 40.606C43.8714 40.6181 44.6811 41.4164 44.6811 42.505Z" fill="#808080"/>
<path d="M27.7874 50.5946C26.7239 50.5825 25.9021 49.7479 25.9142 48.6835C25.9263 47.619 26.7722 46.7844 27.8236 46.7965C28.8871 46.8207 29.7089 47.6553 29.7089 48.7198C29.6968 49.7842 28.8629 50.6067 27.7874 50.5946Z" fill="#808080"/>
<path d="M48.9841 25.6338C50.0597 25.6338 50.9178 26.4926 50.9057 27.557C50.8936 28.5973 50.0476 29.4198 48.9721 29.4319C47.9569 29.444 47.123 28.5731 47.123 27.4966C47.123 26.4563 47.9448 25.6338 48.9841 25.6338Z" fill="#808080"/>
<path d="M4.71498 27.4967C4.72706 26.4443 5.57301 25.6218 6.6365 25.6339C7.67581 25.646 8.4976 26.4806 8.4976 27.5088C8.4976 28.5611 7.65164 29.4199 6.61233 29.4199C5.52467 29.4199 4.70289 28.5853 4.71498 27.4967Z" fill="#808080"/>
<path d="M14.7112 12.5698C14.6992 13.6221 13.8411 14.4688 12.7897 14.4446C11.7262 14.4325 10.8924 13.5737 10.9165 12.5214C10.9286 11.4569 11.7867 10.6223 12.826 10.6465C13.8895 10.6707 14.7233 11.5174 14.7112 12.5698Z" fill="#808080"/>
<path d="M21.418 26.1135C22.1068 23.0049 24.971 20.8276 28.0406 20.9728C31.5573 21.1421 33.8052 23.8395 34.1556 26.1135C29.9138 26.1135 25.684 26.1135 21.418 26.1135Z" fill="#808080"/>
</g>
</svg>
