<svg width="45" height="49" viewBox="0 0 45 49" fill="none" xmlns="http://www.w3.org/2000/svg">
<g opacity="0.4">
<path d="M44.666 24.5103C44.666 28.3748 44.65 32.2392 44.6821 36.1037C44.6821 36.6168 44.5058 36.9215 44.0733 37.146C41.1094 38.7655 38.1456 40.4011 35.1817 42.0207C31.4489 44.0732 27.732 46.1257 23.9992 48.1942C23.5987 48.4187 23.1821 48.6272 22.7816 48.8677C22.4772 49.0441 22.2049 49.0441 21.9005 48.8677C18.7604 47.1359 15.6363 45.4041 12.4962 43.6883C9.82076 42.2131 7.14529 40.7379 4.46981 39.2626C3.1561 38.5411 1.85842 37.8034 0.544709 37.0979C0.144189 36.8894 0 36.5848 0 36.1358C0 28.3748 0.0160208 20.6137 0 12.8687C0 12.4037 0.144187 12.1151 0.560729 11.8746C3.18814 10.4474 5.79954 8.98822 8.41093 7.54506C11.6792 5.74912 14.9474 3.93714 18.2157 2.1412C19.4172 1.48376 20.6188 0.826316 21.8043 0.152839C22.2209 -0.0876889 22.5573 -0.0235477 22.9578 0.200945C25.8256 1.78843 28.7093 3.37591 31.577 4.96339C34.5088 6.58294 37.4567 8.2025 40.3885 9.82205C41.6221 10.4955 42.8557 11.185 44.0893 11.8585C44.5058 12.083 44.6821 12.3877 44.6821 12.8687C44.666 16.7493 44.666 20.6298 44.666 24.5103ZM43.4805 24.5423C43.4805 20.8061 43.4805 17.07 43.4805 13.3338C43.4805 13.0291 43.4485 12.8046 43.128 12.6442C40.6608 11.2973 38.2096 9.9343 35.7585 8.58734C31.3848 6.18207 27.0271 3.77679 22.6534 1.37151C22.4291 1.24323 22.2529 1.24323 22.0286 1.37151C19.5614 2.7345 17.0942 4.08146 14.627 5.44445C10.3014 7.81765 5.99179 10.2069 1.66617 12.5801C1.29769 12.7725 1.18554 13.0131 1.18554 13.4139C1.20156 15.7871 1.18554 18.1603 1.18554 20.5175C1.18554 25.5526 1.18554 30.5876 1.18554 35.6227C1.18554 35.9273 1.20156 36.1839 1.538 36.3603C2.73956 37.0017 3.90908 37.6591 5.09462 38.3166C8.07449 39.9522 11.0383 41.6038 14.0182 43.2394C16.6616 44.6986 19.3051 46.1417 21.9325 47.6009C22.2048 47.7613 22.4291 47.7613 22.7175 47.6009C23.9992 46.8794 25.3129 46.1738 26.6106 45.4683C32.0737 42.4536 37.5368 39.439 43.0159 36.4404C43.3683 36.248 43.4805 36.0396 43.4805 35.6547C43.4805 31.9346 43.4805 28.2465 43.4805 24.5423Z" fill="#808080"/>
<path d="M42.1347 24.5096C42.1347 27.9732 42.1347 31.4207 42.1508 34.8843C42.1508 35.2852 42.0226 35.5257 41.6701 35.7182C36.6877 38.4441 31.7212 41.2022 26.7387 43.9282C25.425 44.6497 24.1113 45.3553 22.8136 46.0929C22.4612 46.2853 22.1888 46.3014 21.8364 46.109C19.5454 44.8261 17.2544 43.5754 14.9474 42.3086C11.6952 40.5127 8.45898 38.7328 5.20675 36.9368C4.43775 36.5199 3.68478 36.0709 2.91578 35.6861C2.5473 35.5097 2.45117 35.2531 2.46719 34.8683C2.48321 33.826 2.46719 32.7837 2.46719 31.7414C2.46719 25.9367 2.46719 20.1159 2.45117 14.3112C2.45117 13.7981 2.61138 13.5255 3.05996 13.2849C7.40161 10.9117 11.7272 8.52248 16.0528 6.13324C18.0394 5.04285 20.026 3.95246 22.0126 2.84603C22.2689 2.70171 22.4612 2.78189 22.6855 2.89413C24.2395 3.744 25.7935 4.6099 27.3475 5.45976C30.055 6.95103 32.7786 8.45834 35.4861 9.94961C37.5528 11.0881 39.6355 12.2426 41.7182 13.3651C42.0386 13.5415 42.1187 13.766 42.1187 14.1188C42.1347 17.5663 42.1347 21.0299 42.1347 24.5096ZM10.9422 24.4775C10.9422 26.2253 10.9582 27.9732 10.9422 29.721C10.9422 30.3945 11.2146 30.8755 11.8073 31.1962C15.0275 32.9441 18.2317 34.7079 21.4519 36.4718C22.0767 36.8085 22.6694 36.7925 23.2943 36.4397C25.409 35.2692 27.5398 34.1146 29.6705 32.9441C30.776 32.3347 31.8654 31.7414 32.9708 31.1321C33.4835 30.8435 33.7559 30.3784 33.7238 29.8012C33.6918 29.2239 33.3553 28.791 32.8106 28.5825C32.298 28.3901 31.7853 28.4542 31.3047 28.7268C28.453 30.2983 25.6013 31.8537 22.7495 33.4251C22.4612 33.5855 22.2369 33.6015 21.9325 33.4251C19.4493 32.0461 16.95 30.6671 14.4347 29.3201C14.0663 29.1277 13.9541 28.8872 13.9541 28.4863C13.9701 25.8405 13.9701 23.1786 13.9381 20.5328C13.9381 19.9876 14.1303 19.7311 14.5789 19.4905C17.0141 18.1757 19.4493 16.8287 21.8844 15.4818C22.2369 15.2733 22.5092 15.2893 22.8617 15.4818C23.5666 15.8987 24.2875 16.2835 25.0085 16.6684C26.7708 17.6465 28.5331 18.6086 30.3114 19.5707C30.6158 19.7311 30.76 19.9395 30.7439 20.3083C30.7119 20.9658 30.7279 21.6393 30.7439 22.2967C30.7439 22.5533 30.6478 22.7136 30.4235 22.8419C29.238 23.4833 28.0524 24.1408 26.8669 24.7822C25.1206 25.7443 23.3583 26.7064 21.6121 27.6685C21.0513 27.9732 20.779 28.4703 20.8751 29.1117C20.9552 29.705 21.3237 30.0898 21.8684 30.2502C22.3971 30.4105 22.8777 30.2822 23.3583 30.0257C26.4824 28.2939 29.6065 26.5781 32.7465 24.8944C33.4515 24.5096 33.7719 23.9804 33.7719 23.1947C33.7559 21.8958 33.7559 20.597 33.7719 19.2981C33.7879 18.4964 33.4675 17.9351 32.7305 17.5663C31.9775 17.1815 31.2406 16.7646 30.5036 16.3476C28.0845 15.0167 25.6653 13.6858 23.2462 12.3549C22.6534 12.0342 22.0607 12.0342 21.4839 12.3549C20.8911 12.6916 20.2984 13.0123 19.7056 13.333C17.1102 14.7762 14.4988 16.2194 11.8874 17.6465C11.2306 17.9993 10.9582 18.5284 10.9582 19.2661C10.9422 21.046 10.9422 22.7617 10.9422 24.4775Z" fill="#808080"/>
</g>
</svg>
