<svg width="37" height="50" viewBox="0 0 37 50" fill="none" xmlns="http://www.w3.org/2000/svg">
<g opacity="0.4">
<path d="M14.9992 0.0263728C15.0801 0.0138457 15.1617 0.00461524 15.2446 0C15.3931 0.510973 15.4322 1.06217 15.7054 1.53028C16.3048 2.57465 17.1973 3.41396 17.8114 4.44909C18.1807 5.08138 18.2596 5.87982 17.995 6.56551C17.568 7.68768 16.8704 8.676 16.2405 9.69135C15.9156 10.2168 15.5144 10.6896 15.1822 11.2104C14.9402 11.6212 14.6186 11.993 14.2015 12.2344C14.1166 11.7168 14.3063 11.1689 14.0848 10.6718C13.502 9.44542 12.254 8.67468 11.7242 7.41604C11.5386 6.82858 11.5996 6.16926 11.8674 5.61543C12.6373 4.04229 13.5431 2.5397 14.4236 1.02656C14.6206 0.696242 14.7307 0.309881 14.9992 0.0263728Z" fill="#808080"/>
<path d="M19.4202 10.7752C20.4599 10.644 21.5659 10.6374 22.54 11.0706C24.215 11.7846 25.4841 13.3683 25.7965 15.1551C26.0491 16.1025 26.1121 17.0902 26.0597 18.0666C26.0444 19.0787 25.7991 20.0762 25.4483 21.0224C24.9364 22.3713 24.1513 23.6188 23.1494 24.6618C22.5142 25.2855 21.9094 25.9462 21.192 26.4796C20.2862 27.1692 19.2332 27.7105 18.092 27.8615C17.5224 27.9353 16.9581 28.0982 16.3793 28.0659C14.825 27.9465 13.2979 27.5786 11.8325 27.0578C10.7357 26.6563 9.62241 26.3055 8.51571 25.9336C7.71735 25.7372 6.92563 25.4563 6.09478 25.4477C5.71947 25.4418 5.4907 25.7958 5.37533 26.1064C5.03384 27.0776 4.77523 28.0745 4.51398 29.0687C4.38003 29.6094 4.20962 30.1414 4.12474 30.6933C4.02528 31.3144 3.96162 31.9407 3.89134 32.5651C3.77994 34.0591 4.00738 35.5742 4.53519 36.9759C4.88796 37.8931 5.50861 38.7343 6.37659 39.2269C7.57214 39.9706 9.07204 39.9396 10.4055 39.6495C11.7363 39.3119 13.042 38.8629 14.274 38.257C15.374 37.7216 16.3998 37.0511 17.409 36.3641C19.4938 34.938 21.5925 33.533 23.7018 32.1425C24.8827 31.3829 26.1174 30.7051 27.3985 30.1269C27.9853 29.8599 28.6132 29.7023 29.2365 29.5428C29.6881 29.4439 30.1934 29.4636 30.5932 29.7168C30.83 29.8711 31.0289 30.0742 31.2537 30.2443C31.5985 30.5251 32.0361 30.6728 32.3544 30.9893C32.6594 31.2972 32.989 31.679 32.9187 32.1451C32.306 32.1978 31.7006 31.9625 31.0899 32.0871C30.21 32.1952 29.4315 32.6416 28.6537 33.0325C27.98 33.3688 27.37 33.8138 26.7486 34.2338C25.8316 34.8549 24.9139 35.478 24.0558 36.1788C21.9101 37.8205 19.887 39.6198 17.6663 41.1646C16.6445 41.8753 15.5968 42.5512 14.516 43.1716C13.2316 43.848 11.918 44.5146 10.493 44.8443C9.14962 45.1772 7.7326 45.4311 6.35802 45.1317C5.45357 44.9451 4.49276 44.7368 3.78723 44.1025C2.90996 43.2922 2.44978 42.1542 2.10299 41.0406C1.91202 40.2297 1.71442 39.4101 1.71442 38.5722C1.72238 38.1073 1.58644 37.6458 1.65341 37.1816C1.77078 36.4854 1.66469 35.7727 1.7973 35.0784C1.9591 34.274 2.03005 33.4552 2.19914 32.6521C2.41331 31.7851 2.59102 30.9082 2.84565 30.0504C3.13542 29.0364 3.4716 28.0362 3.81044 27.038C3.97754 26.5415 4.32897 26.0906 4.29648 25.5433C3.85089 25.4438 3.39733 25.5651 2.97959 25.7174C2.57577 25.871 2.16001 26.0002 1.78205 26.2145C1.32518 26.4578 0.914734 26.7749 0.489694 27.0677C0.361718 27.16 0.134279 27.2167 0.039457 27.0512C-0.0348089 26.8962 0.00762853 26.7149 0.0692957 26.564C0.577221 25.2783 1.58512 24.222 2.78729 23.5476C3.22626 23.3445 3.58035 23.0089 3.89001 22.6456C4.38268 22.0727 4.96819 21.5716 5.64786 21.2307C5.98006 21.0501 6.36598 20.9769 6.67166 20.7448C6.95745 20.5477 7.16832 20.2648 7.33807 19.9668C8.89964 17.4264 10.9088 15.1294 13.3649 13.4098C13.8198 13.0274 14.3582 12.769 14.882 12.4954C16.2851 11.6831 17.8016 11.0066 19.4202 10.7752ZM14.819 14.5485C13.7932 14.9434 12.8875 15.5751 12.0155 16.2298C11.241 16.839 10.5633 17.5563 9.87438 18.2565C9.39563 18.7569 9.03557 19.3536 8.57274 19.8672C8.401 20.0472 8.47062 20.3096 8.47792 20.5312C9.34126 20.5503 10.2053 20.6103 11.0606 20.7303C13.5837 21.2057 15.941 22.2711 18.4276 22.8849C19.0979 23.0939 19.8015 23.1421 20.4931 23.241C20.9824 23.3109 21.4751 23.2179 21.9565 23.1328C22.4492 23.0445 22.7297 22.5948 23.0731 22.2803C23.6938 21.685 23.967 20.816 24.0161 19.9787C23.9882 19.2132 24.0797 18.4398 23.9551 17.6796C23.7561 16.8647 23.2946 16.123 22.7138 15.5223C22.2847 15.128 21.8378 14.7364 21.3047 14.4885C20.6051 14.1846 19.8638 13.9683 19.1039 13.8918C17.6497 13.7593 16.1717 14.0098 14.819 14.5485Z" fill="#808080"/>
<path d="M31.5098 33.646C32.161 33.3315 32.9083 33.2781 33.6191 33.3599C33.9493 33.4113 34.1914 33.6612 34.4221 33.8807C34.8054 34.25 35.2921 34.5071 35.6256 34.9284C35.8531 35.2251 36.107 35.5508 36.0692 35.9484C35.983 35.9846 35.9008 36.0466 35.8027 36.0341C35.493 36.0262 35.1853 35.9754 34.875 35.9866C34.2703 36.0044 33.6768 36.1765 33.137 36.4435C31.9561 37.0066 30.9064 37.801 29.9071 38.6344C29.0299 39.3867 28.1559 40.1456 27.3476 40.9717C26.3225 41.997 25.2894 43.0143 24.2092 43.9835C23.389 44.7938 22.5402 45.5758 21.667 46.33C20.8029 47.077 19.8541 47.7212 18.8627 48.2888C18.1891 48.6699 17.4676 48.9825 16.7051 49.1367C15.5931 49.3227 14.4353 49.4117 13.3326 49.1203C12.9759 49.0319 12.6297 48.9066 12.2962 48.7543C11.7425 48.4992 11.1099 48.5077 10.5503 48.2691C9.76717 47.9467 9.01324 47.4614 8.55505 46.7348C8.4337 46.5588 8.45757 46.3379 8.46155 46.1368C8.88527 46.1263 9.26256 46.3313 9.66638 46.421C11.0304 46.5997 12.4036 46.2997 13.69 45.8612C14.1634 45.6918 14.6482 45.5487 15.1044 45.3351C15.8556 44.9929 16.5559 44.5545 17.2694 44.143C18.451 43.462 19.5192 42.6068 20.5563 41.7286C22.4646 40.0836 24.3896 38.4564 26.3815 36.9116C27.963 35.6438 29.6174 34.4181 31.5098 33.646Z" fill="#808080"/>
</g>
</svg>
