<svg width="61" height="43" viewBox="0 0 61 43" fill="none" xmlns="http://www.w3.org/2000/svg">
<g opacity="0.4">
<path d="M50.5191 20.919C49.523 22.7135 48.1684 23.7702 46.5349 24.508C45.6982 24.8868 44.8815 25.3254 44.0448 25.7442C43.6862 25.9236 43.3675 26.123 43.0089 26.3224C43.1085 26.5018 43.2081 26.6813 43.3277 26.8607C43.8456 26.8208 44.3636 26.781 44.9014 26.7411C46.1166 26.6613 46.7142 27.3193 46.3955 28.5156C45.8576 30.5892 44.6225 32.1843 42.6504 33.0417C40.6185 33.919 39.1443 35.3147 37.9889 37.1889C36.1761 40.1598 33.7059 42.3929 30.1202 42.8714C25.5583 43.4895 21.8132 41.8745 19.1439 38.126C18.1279 36.6905 17.4705 34.9757 16.7932 33.3208C16.2354 31.9849 16.2155 31.9052 14.8808 32.5033C9.96038 34.7564 5.13956 37.169 0.657383 40.2196C0.498017 40.3193 0.318732 40.399 0 40.5785C0.0796831 39.2825 0.597621 38.3055 1.25501 37.4282C2.70922 35.4941 4.50209 33.899 6.61369 32.7426C9.24324 31.2871 11.9724 29.9911 14.7015 28.7349C15.6776 28.2764 16.1956 27.7779 16.2354 26.6215C16.3749 21.4773 17.4307 16.5525 19.7216 11.9267C21.873 7.58007 24.5822 3.69204 29.0246 1.33928C30.8573 0.362292 32.7497 -0.255807 34.8414 0.103088C37.8495 0.621492 39.8814 2.7948 40.5388 6.00492C41.7739 12.1261 39.5029 17.031 35.1602 21.1184C31.4549 24.6076 26.9329 26.9006 22.4905 29.2932C20.9168 30.1506 20.7973 30.3101 21.2555 32.0049C22.2117 35.5141 25.399 38.3454 28.6859 38.6046C30.8573 38.784 32.7099 38.0862 34.1641 36.5509C35.4191 35.1951 36.5347 33.6997 37.6503 32.2242C39.3037 30.031 40.7977 27.6981 42.5906 25.6245C44.6225 23.2319 47.3517 21.9359 50.5191 20.919ZM20.0602 24.5478C20.0005 26.123 20.0801 26.1828 21.375 25.6046C22.7296 25.0064 24.1041 24.4083 25.4189 23.7304C29.2238 21.7564 32.6701 19.304 35.1801 15.735C37.0526 13.0831 37.8893 10.1522 37.4311 6.90216C37.0327 4.09081 35.0207 2.65523 32.2716 3.27333C29.0246 4.01106 26.654 6.00492 24.881 8.75645C21.7535 13.5816 20.4785 19.0049 20.0602 24.5478Z" fill="#808080"/>
<path d="M57.2337 17.6299C57.4926 17.8093 57.8512 17.9489 58.0703 18.228C58.8472 19.1851 59.5843 20.1621 60.3214 21.1391C60.6999 21.6176 60.6401 22.0363 60.1222 22.3952C58.9668 23.1928 57.8313 23.9903 56.6958 24.8078C56.1978 25.1667 55.7994 25.0869 55.4408 24.5685C54.7037 23.4918 53.9268 22.455 53.2495 21.3584C53.1101 21.1391 53.13 20.5609 53.2893 20.4213C54.3651 19.5241 55.4806 18.7066 56.5962 17.8691C56.7556 17.7495 56.9548 17.7296 57.2337 17.6299Z" fill="#808080"/>
</g>
</svg>
