<svg width="24" height="24" viewBox="0 0 24 24" fill="none" xmlns="http://www.w3.org/2000/svg">
<circle cx="15" cy="4" r="2" stroke="#27686A" stroke-width="1.5"/>
<path d="M11 16V15.0263C11 14.9078 11 14.8485 10.9979 14.7919C10.9672 13.9811 10.6095 13.2172 10.0062 12.6746C9.96408 12.6368 9.91852 12.5988 9.8275 12.5229C9.69411 12.4118 9.62741 12.3562 9.5758 12.3065C8.80944 11.5688 8.75462 10.3603 9.45104 9.55624C9.49795 9.50208 9.55934 9.44069 9.68211 9.31792L10.0113 8.98868C10.9639 8.03616 10.6532 6.42281 9.41502 5.89218C8.84181 5.64652 8.18464 5.69713 7.65581 6.02765L4.5 8.00003" stroke="#27686A" stroke-width="1.5" stroke-linecap="round"/>
<path opacity="0.5" d="M3 15.5H3.37868C4.73694 15.5 6.03957 14.9604 7 14" stroke="#27686A" stroke-width="1.5" stroke-linecap="round"/>
<path opacity="0.5" d="M12.5 10C13.4737 10.3246 14.5263 10.3246 15.5 10" stroke="#27686A" stroke-width="1.5" stroke-linecap="round"/>
<path d="M19.4888 22H3.08684C2.48659 22 2 21.5134 2 20.9131C2 20.3852 2.37943 19.9336 2.89949 19.8426L19.0559 17.0152C20.5926 16.7463 22 17.9288 22 19.4888C22 20.8757 20.8757 22 19.4888 22Z" stroke="#27686A" stroke-width="1.5" stroke-linejoin="round"/>
<path opacity="0.5" d="M19.1218 10.0213L18.3801 9.91005L19.1218 10.0213ZM22.1471 7.73544C22.5533 7.6542 22.8167 7.25908 22.7354 6.85291C22.6542 6.44674 22.2591 6.18333 21.8529 6.26456L22.1471 7.73544ZM18.7417 17.6113L19.8635 10.1326L18.3801 9.91005L17.2583 17.3887L18.7417 17.6113ZM19.8635 10.1326C20.0436 8.93217 20.9568 7.97349 22.1471 7.73544L21.8529 6.26456C20.0428 6.62658 18.6539 8.08452 18.3801 9.91005L19.8635 10.1326Z" fill="#27686A"/>
</svg>
