<svg width="26" height="23" viewBox="0 0 26 23" fill="none" xmlns="http://www.w3.org/2000/svg">
<path d="M11.0845 23H0V15.2495C0 11.9613 0.32351 9.46171 0.97053 7.75055C1.41323 6.00584 2.45187 4.345 4.08644 2.76805C5.14211 1.76149 6.82777 0.838804 9.14342 0L10.6758 3.87527C8.4964 4.57987 6.86182 5.60321 5.7721 6.9453C4.95481 8.25383 4.47806 9.99854 4.34185 12.1794H11.0845V23Z" fill="#808080"/>
<path d="M26 23H14.9155V15.2495C14.9155 11.9613 15.239 9.46171 15.8861 7.75055C16.3287 6.00584 17.3674 4.345 19.002 2.76805C20.0576 1.76149 21.7433 0.838804 24.0589 0L25.5914 3.87527C23.4119 4.57987 21.7773 5.60321 20.6876 6.9453C19.8703 8.25383 19.3936 9.99854 19.2574 12.1794H26V23Z" fill="#808080"/>
</svg>
